<svg class="animated" id="freepik_stories-infertility-diagnosis" xmlns="http://www.w3.org/2000/svg" viewBox="0 0 750 500" version="1.1" xmlns:xlink="http://www.w3.org/1999/xlink" xmlns:svgjs="http://svgjs.com/svgjs"><style>svg#freepik_stories-infertility-diagnosis:not(.animated) .animable {opacity: 0;}svg#freepik_stories-infertility-diagnosis.animated #freepik--background-complete--inject-3 {animation: 1s 1 forwards cubic-bezier(.36,-0.01,.5,1.38) slideDown;animation-delay: 0s;}svg#freepik_stories-infertility-diagnosis.animated #freepik--Floor--inject-3 {animation: 1s 1 forwards cubic-bezier(.36,-0.01,.5,1.38) slideLeft;animation-delay: 0s;}svg#freepik_stories-infertility-diagnosis.animated #freepik--Tubes--inject-3 {animation: 1s 1 forwards cubic-bezier(.36,-0.01,.5,1.38) zoomOut;animation-delay: 0s;}svg#freepik_stories-infertility-diagnosis.animated #freepik--Clipboard--inject-3 {animation: 1s 1 forwards cubic-bezier(.36,-0.01,.5,1.38) slideUp;animation-delay: 0s;}svg#freepik_stories-infertility-diagnosis.animated #freepik--Microscope--inject-3 {animation: 1s 1 forwards cubic-bezier(.36,-0.01,.5,1.38) zoomOut;animation-delay: 0s;}svg#freepik_stories-infertility-diagnosis.animated #freepik--speech-bubble--inject-3 {animation: 1s 1 forwards cubic-bezier(.36,-0.01,.5,1.38) slideRight;animation-delay: 0s;}svg#freepik_stories-infertility-diagnosis.animated #freepik--Character--inject-3 {animation: 1s 1 forwards cubic-bezier(.36,-0.01,.5,1.38) slideUp;animation-delay: 0s;}            @keyframes slideDown {                0% {                    opacity: 0;                    transform: translateY(-30px);                }                100% {                    opacity: 1;                    transform: translateY(0);                }            }                    @keyframes slideLeft {                0% {                    opacity: 0;                    transform: translateX(-30px);                }                100% {                    opacity: 1;                    transform: translateX(0);                }            }                    @keyframes zoomOut {                0% {                    opacity: 0;                    transform: scale(1.5);                }                100% {                    opacity: 1;                    transform: scale(1);                }            }                    @keyframes slideUp {                0% {                    opacity: 0;                    transform: translateY(30px);                }                100% {                    opacity: 1;                    transform: inherit;                }            }                    @keyframes slideRight {                0% {                    opacity: 0;                    transform: translateX(30px);                }                100% {                    opacity: 1;                    transform: translateX(0);                }            }        .animator-hidden { display: none; }</style><g id="freepik--background-complete--inject-3" style="transform-origin: 373.75px 261.441px 0px;" class="animable"><path d="M53.07,392.9A28.26,28.26,0,0,0,41,388.73c-2-.2-4.13-.14-5.72,1a1.17,1.17,0,0,0-.59,1.05,1.19,1.19,0,0,0,.56.71,17.3,17.3,0,0,0,17.85,1.36" style="fill: rgb(224, 224, 224); transform-origin: 43.8948px 391.675px 0px;" id="el816gk6pospk" class="animable"></path><path d="M52.76,392.55A58.73,58.73,0,0,1,45,385.68a19.78,19.78,0,0,1-4.9-9.06,3.65,3.65,0,0,1,.38-3c6.23,4.86,11.13,11.15,12.33,19" style="fill: rgb(224, 224, 224); transform-origin: 46.3729px 383.12px 0px;" id="elm2dvepd6sg" class="animable"></path><path d="M53,392.85a28.3,28.3,0,0,1,.14-10.26,13.88,13.88,0,0,1,5.47-8.47c1.07,2.52.61,5.42-.15,8.05a39.11,39.11,0,0,1-5.42,11.41" style="fill: rgb(224, 224, 224); transform-origin: 55.9191px 383.85px 0px;" id="ell8y9m120z6o" class="animable"></path><path d="M59.11,403.79a17.94,17.94,0,0,0-9.7,4.91,18.41,18.41,0,0,0-5.55,9.53c3.64-.22,6.72-2.79,9-5.66s3.79-6,6.24-8.72" style="fill: rgb(224, 224, 224); transform-origin: 51.485px 411.01px 0px;" id="el4imfosvxggy" class="animable"></path><path d="M60.44,405.54A24,24,0,0,1,63.2,382.9c2.12,7.52,1.34,16-2.76,22.64" style="fill: rgb(224, 224, 224); transform-origin: 61.5624px 394.22px 0px;" id="elq1p14v6sr9" class="animable"></path><path d="M68.51,415.15A17.28,17.28,0,0,0,52,424.68c-.2.41-.38.93-.11,1.29a1.25,1.25,0,0,0,1.1.33c3.26-.22,6.15-2.18,8.53-4.41s4.47-4.82,7.1-6.75" style="fill: rgb(224, 224, 224); transform-origin: 60.1866px 420.72px 0px;" id="el8xwfe7jcj6" class="animable"></path><path d="M68.25,414.63a30.94,30.94,0,0,1-.31-17.22c.61-2.21,1.63-4.55,3.68-5.59a.74.74,0,0,1,.56-.09.73.73,0,0,1,.36.41,10.41,10.41,0,0,1,.86,4.94,30.54,30.54,0,0,1-.77,5c-.65,3.05-1,6.34-2.67,9a20.71,20.71,0,0,0-1.06,2c-.32.67-.32.91-.61,1.44" style="fill: rgb(224, 224, 224); transform-origin: 70.1469px 403.17px 0px;" id="elmsaffcbfl3" class="animable"></path><path d="M89.61,417.81a22.21,22.21,0,0,1,3.89-18.25c.28-.36.65-.75,1.11-.71.69.06.88,1,.84,1.69a32.9,32.9,0,0,1-5.84,17.27" style="fill: rgb(224, 224, 224); transform-origin: 92.2562px 408.329px 0px;" id="elkf02a60fayd" class="animable"></path><path d="M91.54,419.13a26.53,26.53,0,0,0,21.78-4.44,17.67,17.67,0,0,0-11.79-1.44c-3.94.9-7.54,2.66-10,5.88" style="fill: rgb(224, 224, 224); transform-origin: 102.425px 416.328px 0px;" id="elveyypi03a4m" class="animable"></path><path d="M93.16,415.12a25.16,25.16,0,0,1,19.77-11.43c-.9,3.18-3.52,5.65-6.47,7.15A36,36,0,0,1,97,413.61c-1.26.25-3,.52-3.81,1.51" style="fill: rgb(224, 224, 224); transform-origin: 103.045px 409.405px 0px;" id="elr9ieg66xu7n" class="animable"></path><path d="M90,395.67a57.72,57.72,0,0,0,2.53-11.58,19.3,19.3,0,0,0-2.31-11.45,25.22,25.22,0,0,0-.34,23.43" style="fill: rgb(224, 224, 224); transform-origin: 89.9021px 384.355px 0px;" id="el6jjdm1kgnto" class="animable"></path><path d="M102.9,389.16c4.47-8.13,13.6-14.63,22.84-15.54-3.57,8.88-13.28,15.73-22.84,15.54" style="fill: rgb(224, 224, 224); transform-origin: 114.32px 381.392px 0px;" id="el6y77s3zqdij" class="animable"></path><path d="M100.08,390.75c6.68,1,12.36,5.28,18.6,7.87a8.31,8.31,0,0,0,4.2.8,3.29,3.29,0,0,0,2.06-5.82,9,9,0,0,0-3-1.85c-6.8-2.83-14.08-2.9-21.23-1.19" style="fill: rgb(224, 224, 224); transform-origin: 113.104px 394.43px 0px;" id="els8ow7tjg8d" class="animable"></path><path d="M96.22,395.43c1.51.44,2,1.22,3.22,2.24a34.94,34.94,0,0,0,14.1,7.24c.54.13,1.25.19,1.52-.3s-.07-.94-.37-1.32a19.44,19.44,0,0,0-8.51-5.78c-3.26-1.21-6.07-2.67-10-2.36" style="fill: rgb(224, 224, 224); transform-origin: 105.669px 400.055px 0px;" id="elv6o4dzr1vw9" class="animable"></path><path d="M91.86,367.17a26.73,26.73,0,0,0,20.46,7,1.43,1.43,0,0,0,.93-.33c.52-.56-.1-1.43-.7-1.9-6-4.69-13.3-6.63-20.69-4.73" style="fill: rgb(224, 224, 224); transform-origin: 102.652px 370.379px 0px;" id="ele3bu21hcsb" class="animable"></path><path d="M97,365.28a28.5,28.5,0,0,1,25.53-4.21,20.3,20.3,0,0,1-12.17,5.34A38.61,38.61,0,0,1,97,365.28" style="fill: rgb(224, 224, 224); transform-origin: 109.765px 363.149px 0px;" id="el9yjvbinf5av" class="animable"></path><path d="M95,352.29c-.59-6-.21-10.74-.63-16.77,0-.48-.13-1.06-.58-1.24-.63-.24-1.16.53-1.36,1.17A19.23,19.23,0,0,0,95,352.16" style="fill: rgb(224, 224, 224); transform-origin: 93.2783px 343.263px 0px;" id="elh1u5yn26dj" class="animable"></path><path d="M94.55,353a35.29,35.29,0,0,0,9.94-9.66c2-2.69,3.62-5.91,3.17-9.21a9.51,9.51,0,0,0-7.17,3.57A20.07,20.07,0,0,0,96.83,345c-.79,2.64-1.35,5.36-2.28,7.95" style="fill: rgb(224, 224, 224); transform-origin: 101.143px 343.565px 0px;" id="elb7udyczgtt" class="animable"></path><path d="M104.32,350.24a80.13,80.13,0,0,0,24.47-14.43c-2.93-1.18-6.27-.47-9.2.71a28.94,28.94,0,0,0-15.4,13.66" style="fill: rgb(224, 224, 224); transform-origin: 116.49px 342.722px 0px;" id="elc3qkzkref98" class="animable"></path><path d="M97.29,356.24a49.89,49.89,0,0,0,13.59.06c4.41-.73,8.57-2.48,12.69-4.21a1.5,1.5,0,0,0,.86-.65,1,1,0,0,0-.31-1.09,2.69,2.69,0,0,0-1.08-.51,23.54,23.54,0,0,0-13.71.82,63.84,63.84,0,0,0-12,5.58" style="fill: rgb(224, 224, 224); transform-origin: 110.886px 352.961px 0px;" id="elcz9tu9juqku" class="animable"></path><path d="M71.5,367.37a24,24,0,0,1-.22-19.89c1.87,2.86,2.1,6.49,1.76,9.89s-1.38,6.9-1.45,10.31" style="fill: rgb(224, 224, 224); transform-origin: 71.2012px 357.58px 0px;" id="el8oiopm5psrn" class="animable"></path><path d="M59.19,361.17A27.72,27.72,0,0,0,38.57,370a19.28,19.28,0,0,0,11.29-2.1,57,57,0,0,0,9.67-6.47" style="fill: rgb(224, 224, 224); transform-origin: 49.05px 365.652px 0px;" id="elsqyguccxm9r" class="animable"></path><path d="M50.91,358.4c-3.77-.31-7.39-.77-11,.33a13.22,13.22,0,0,0-8.39,7.12,20,20,0,0,0,10.32-2,59.65,59.65,0,0,0,9.08-5.5" style="fill: rgb(224, 224, 224); transform-origin: 41.22px 361.97px 0px;" id="el2w53ij6bmy1" class="animable"></path><path d="M63.16,358.52c-3.38-2.22-6.86-4.48-10.8-5.39s-8.52-.24-11.27,2.73c3.2,1.87,7.07,2.09,10.77,2.09s8.24-.05,11.73,1.19" style="fill: rgb(224, 224, 224); transform-origin: 52.34px 355.946px 0px;" id="elcm17pstw7eq" class="animable"></path><path d="M63.18,358.7c-5.79-5.68-8-15.9-5.65-23.67a36,36,0,0,1,5.65,23.67" style="fill: rgb(224, 224, 224); transform-origin: 60.0018px 346.865px 0px;" id="elkxzh08dvyee" class="animable"></path><path d="M79.1,342.59c1.1-2.53,1.86-5.2,2.84-7.78a22.33,22.33,0,0,1,4-7.18,10.68,10.68,0,0,1,7.17-3.72,28.84,28.84,0,0,1-13.91,18.72" style="fill: rgb(224, 224, 224); transform-origin: 86.105px 333.27px 0px;" id="elbld5csnuhi8" class="animable"></path><path d="M76.22,346c-1.8-2.49-3.89-5.86-6.34-7.72A10.61,10.61,0,0,0,61.25,336a20.09,20.09,0,0,0,15,10" style="fill: rgb(224, 224, 224); transform-origin: 68.75px 340.918px 0px;" id="el5w0zuk90roh" class="animable"></path><path d="M76.8,342.8a42.68,42.68,0,0,1-2.86-9.25,14.44,14.44,0,0,1,1.45-9.4c3.18,6,4.2,12.45,1.57,18.72" style="fill: rgb(224, 224, 224); transform-origin: 76.08px 333.51px 0px;" id="el45kdfqwro1a" class="animable"></path><path d="M79.13,324.15c1.8-6,7.26-10.34,13.14-12.36a5,5,0,0,1,2.31-.34,2,2,0,0,1,1.7,1.42c.21,1-.63,1.92-1.41,2.59a44.8,44.8,0,0,1-15.74,8.69" style="fill: rgb(224, 224, 224); transform-origin: 87.7213px 317.79px 0px;" id="ell13no60op18" class="animable"></path><path d="M79.2,319.28c.23-3.84.47-7.74,1.72-11.38s3.65-7,7.15-8.64c.6,3.88-1.11,7.74-3.18,11.07s-4.55,6.49-5.79,10.21" style="fill: rgb(224, 224, 224); transform-origin: 83.6458px 309.9px 0px;" id="eln6jy8npg7a" class="animable"></path><path d="M79.1,321.92c-1.48-4.34-1.64-9.85-4.24-13.64-1.81-2.64-4.72-4.44-6.29-7.24a11,11,0,0,0,.37,8.22,23.77,23.77,0,0,0,4.81,6.89c1.92,2.05,3.57,3.6,5.35,5.77" style="fill: rgb(224, 224, 224); transform-origin: 73.5232px 311.48px 0px;" id="el0yj3a729yit" class="animable"></path><path d="M79.13,449.74c-.11,0-.21-29-.22-64.67s.08-64.66.19-64.66.22,28.94.23,64.66S79.25,449.74,79.13,449.74Z" style="fill: rgb(224, 224, 224); transform-origin: 79.12px 385.075px 0px;" id="elmpe5ok5o99" class="animable"></path><path d="M104.43,363a6.86,6.86,0,0,1-1.08.4l-3,1c-2.53.86-6,2.1-9.76,3.65s-7.25,2.89-9.25,4.63a6.76,6.76,0,0,0-1.86,2.46c-.29.68-.34,1.09-.38,1.09a.92.92,0,0,1,0-.31,4.37,4.37,0,0,1,.21-.84,6.41,6.41,0,0,1,1.81-2.62,16.2,16.2,0,0,1,4-2.49c1.6-.75,3.38-1.54,5.27-2.31,3.78-1.55,7.27-2.76,9.83-3.55,1.28-.39,2.32-.69,3-.88A5.77,5.77,0,0,1,104.43,363Z" style="fill: rgb(224, 224, 224); transform-origin: 91.7584px 369.615px 0px;" id="eljnpnil0mt1" class="animable"></path><path d="M112.73,342.63s-.1.13-.31.33l-.93.87L108,347,96.48,357.26c-4.5,4-8.4,7.85-11.1,10.73-1.35,1.44-2.41,2.64-3.14,3.47l-.84,1a1.65,1.65,0,0,1-.31.32,1.49,1.49,0,0,1,.25-.37c.17-.24.43-.58.78-1,.68-.87,1.72-2.1,3-3.57A148.42,148.42,0,0,1,96.2,357c4.52-4,8.64-7.6,11.63-10.19l3.56-3.05,1-.81A1.54,1.54,0,0,1,112.73,342.63Z" style="fill: rgb(224, 224, 224); transform-origin: 96.91px 357.705px 0px;" id="elscapkunycn" class="animable"></path><path d="M91.62,361.34c-.12,0,.82-2.23,1.76-5s1.39-5.07,1.51-5.05a17,17,0,0,1-1.12,5.18,33.57,33.57,0,0,1-1.4,3.48A5.57,5.57,0,0,1,91.62,361.34Z" style="fill: rgb(224, 224, 224); transform-origin: 93.2498px 356.315px 0px;" id="elewesaihsegf" class="animable"></path><path d="M79.16,378.87a6,6,0,0,1-.7-.81l-1.77-2.28c-1.5-1.93-3.56-4.6-5.88-7.52s-4.44-5.53-6-7.43L63,358.58a4.77,4.77,0,0,1-.63-.86,6.57,6.57,0,0,1,.75.76c.46.5,1.12,1.24,1.92,2.16,1.6,1.85,3.77,4.44,6.09,7.36s4.35,5.62,5.78,7.6c.72,1,1.29,1.8,1.68,2.36A5.63,5.63,0,0,1,79.16,378.87Z" style="fill: rgb(224, 224, 224); transform-origin: 70.765px 368.295px 0px;" id="elplqtqv4q6w" class="animable"></path><path d="M73.61,371.74a10.05,10.05,0,0,1-2.32-4.35,12.49,12.49,0,0,1-.53-4.38H71q-.14.51-.18.51s0-.19,0-.54l.19,0a19.14,19.14,0,0,0,.74,4.26A32.19,32.19,0,0,0,73.61,371.74Z" style="fill: rgb(224, 224, 224); transform-origin: 72.1748px 367.36px 0px;" id="el9ygbd06u35" class="animable"></path><path d="M66.45,362.73a7.53,7.53,0,0,0-1.62-.94,10.93,10.93,0,0,0-4.51-.36,26.82,26.82,0,0,0-4.54.74,13.19,13.19,0,0,1-1.86.44,6.54,6.54,0,0,1,1.78-.73,20.55,20.55,0,0,1,4.59-.86,9.77,9.77,0,0,1,4.65.5A2.88,2.88,0,0,1,66.45,362.73Z" style="fill: rgb(224, 224, 224); transform-origin: 60.185px 361.831px 0px;" id="eljtsyhl6b3p" class="animable"></path><path d="M64.75,360.55c0,.07-.94-.38-2.48-.9a25,25,0,0,0-12.53-1c-1.61.29-2.58.59-2.6.52a2.19,2.19,0,0,1,.66-.28,15.39,15.39,0,0,1,1.88-.53,22,22,0,0,1,6.41-.45,22.24,22.24,0,0,1,6.28,1.42,16.38,16.38,0,0,1,1.77.8C64.55,360.39,64.76,360.52,64.75,360.55Z" style="fill: rgb(224, 224, 224); transform-origin: 55.9452px 359.201px 0px;" id="el9uyctvcps4g" class="animable"></path><path d="M79.1,351.32a104.19,104.19,0,0,1-3.22-12.7,49,49,0,0,1,1.82,6.3A48.48,48.48,0,0,1,79.1,351.32Z" style="fill: rgb(224, 224, 224); transform-origin: 77.49px 344.97px 0px;" id="el43jdfwws4lh" class="animable"></path><path d="M79.22,351.32a31.19,31.19,0,0,0-2-3.77,16.82,16.82,0,0,0-3-3.06,2.84,2.84,0,0,1,1.14.59,9.05,9.05,0,0,1,2.16,2.23A8.3,8.3,0,0,1,79.22,351.32Z" style="fill: rgb(224, 224, 224); transform-origin: 76.72px 347.905px 0px;" id="elvxp9vrocz5" class="animable"></path><path d="M79.13,434.3s-.13-.7-.45-1.92a27.72,27.72,0,0,0-1.94-5A69.41,69.41,0,0,0,66.48,412.9c-2.3-2.62-4.52-5.09-6.41-7.45a53.7,53.7,0,0,1-4.58-6.61,33,33,0,0,1-2.31-4.9c-.21-.6-.36-1.07-.45-1.4a2.75,2.75,0,0,1-.12-.5s.25.66.73,1.84a34.84,34.84,0,0,0,2.41,4.81,55.54,55.54,0,0,0,4.62,6.51c1.9,2.35,4.13,4.8,6.42,7.42A66,66,0,0,1,77,427.23a24.5,24.5,0,0,1,1.82,5.11,12,12,0,0,1,.26,1.45A2,2,0,0,1,79.13,434.3Z" style="fill: rgb(224, 224, 224); transform-origin: 65.8705px 413.17px 0px;" id="eloo0jcbz6cy9" class="animable"></path><path d="M102,408.48a12.28,12.28,0,0,1-1.2.67,26.72,26.72,0,0,0-3.11,2.05,35.69,35.69,0,0,0-4.08,3.73c-1.43,1.51-2.91,3.27-4.42,5.15-3,3.78-5.82,7.12-7.51,9.79-.86,1.33-1.48,2.44-1.89,3.22a9.85,9.85,0,0,1-.66,1.21,1.79,1.79,0,0,1,.11-.34c.09-.21.21-.54.41-.94a30.1,30.1,0,0,1,1.78-3.31,107.72,107.72,0,0,1,7.44-9.89c1.51-1.89,3-3.65,4.46-5.16A32.73,32.73,0,0,1,97.51,411a23.36,23.36,0,0,1,3.21-2c.4-.19.72-.32.94-.41S102,408.46,102,408.48Z" style="fill: rgb(224, 224, 224); transform-origin: 90.565px 421.387px 0px;" id="eldyoo7alydk" class="animable"></path><path d="M102.44,416.85a15.6,15.6,0,0,1-2.53.37,32.67,32.67,0,0,0-6,1.19,17.8,17.8,0,0,0-5.37,2.82c-1.24,1-1.83,1.75-1.89,1.7a2.21,2.21,0,0,1,.38-.58A8.9,8.9,0,0,1,88.34,421a16.17,16.17,0,0,1,5.44-3,27.12,27.12,0,0,1,6.1-1.08A14.27,14.27,0,0,1,102.44,416.85Z" style="fill: rgb(224, 224, 224); transform-origin: 94.545px 419.877px 0px;" id="el5sfigznven7" class="animable"></path><path d="M87.38,422c-.13-.07,1-1.82,1.9-4.16s1-4.44,1.17-4.42a3.93,3.93,0,0,1,0,1.36,14.66,14.66,0,0,1-.74,3.2,15.08,15.08,0,0,1-1.47,2.94A4,4,0,0,1,87.38,422Z" style="fill: rgb(224, 224, 224); transform-origin: 88.9395px 417.71px 0px;" id="eltxubg9sw71g" class="animable"></path><path d="M109.4,386s-.13.09-.4.22l-1.19.54c-.53.22-1.16.51-1.87.88s-1.55.75-2.42,1.28l-1.38.78c-.48.28-1,.6-1.46.92-1,.62-2,1.38-3.13,2.16A58.49,58.49,0,0,0,91,398.5a60.54,60.54,0,0,0-5.52,6.72c-.74,1.12-1.46,2.16-2,3.2-.3.52-.61,1-.87,1.49l-.74,1.41c-.49.88-.84,1.73-1.19,2.46s-.61,1.37-.82,1.9-.36.88-.5,1.2a1.86,1.86,0,0,1-.2.42,2.13,2.13,0,0,1,.12-.44c.12-.33.26-.74.43-1.24a20.37,20.37,0,0,1,.76-1.93c.32-.74.66-1.6,1.14-2.5l.71-1.43c.26-.5.56-1,.86-1.51.57-1.06,1.29-2.12,2-3.25a51.65,51.65,0,0,1,12.13-12.55c1.11-.78,2.14-1.53,3.17-2.14.52-.32,1-.64,1.48-.91l1.41-.76c.88-.51,1.73-.88,2.46-1.23s1.37-.62,1.9-.82l1.23-.47Z" style="fill: rgb(224, 224, 224); transform-origin: 94.28px 401.65px 0px;" id="ellb5cvkfxteq" class="animable"></path><path d="M91.31,398.11a2.83,2.83,0,0,1,1-1.48,6.23,6.23,0,0,1,4-1.54,10.88,10.88,0,0,1,4.22.82,5.77,5.77,0,0,1,1.59.78,9.37,9.37,0,0,1-1.69-.5,12.74,12.74,0,0,0-4.11-.68,6.56,6.56,0,0,0-3.83,1.34A11.42,11.42,0,0,0,91.31,398.11Z" style="fill: rgb(224, 224, 224); transform-origin: 96.715px 396.6px 0px;" id="elzl5mqthulu" class="animable"></path><path d="M88.6,400.9a10.65,10.65,0,0,0,.88-7.57s.28.37.47,1.08a7.67,7.67,0,0,1,.21,2.83,7.86,7.86,0,0,1-.85,2.72C89,400.6,88.64,400.93,88.6,400.9Z" style="fill: rgb(224, 224, 224); transform-origin: 89.404px 397.116px 0px;" id="elq46mpx2k36" class="animable"></path><path d="M59.14,438.45c.62,11.06,4,22.32,9.08,33.69h22.3c4.9-11.26,8-22.5,8.55-33.69Z" style="fill: rgb(224, 224, 224); transform-origin: 79.105px 455.295px 0px;" id="elyrghje8xs8b" class="animable"></path><path d="M95.46,456.35c0,.12-7.35.21-16.4.21s-16.4-.09-16.4-.21,7.34-.2,16.4-.2S95.46,456.24,95.46,456.35Z" style="fill: rgb(250, 250, 250); transform-origin: 79.06px 456.355px 0px;" id="el4egjt7lmz1c" class="animable"></path><path d="M95,460.36c0,.12-6.89.21-15.37.21s-15.38-.09-15.38-.21,6.88-.21,15.38-.21S95,460.25,95,460.36Z" style="fill: rgb(250, 250, 250); transform-origin: 79.625px 460.36px 0px;" id="ele49x39gp009" class="animable"></path><path d="M68.58,445.71a63,63,0,0,1,0,10.28,63,63,0,0,1,0-10.28Z" style="fill: rgb(250, 250, 250); transform-origin: 68.58px 450.85px 0px;" id="elbybf5sudp37" class="animable"></path><path d="M80.53,445.71a67.49,67.49,0,0,1,0,10.64,67.49,67.49,0,0,1,0-10.64Z" style="fill: rgb(250, 250, 250); transform-origin: 80.53px 451.03px 0px;" id="elcxk4r45246u" class="animable"></path><path d="M91.75,445.62a70.31,70.31,0,0,1,0,10.86,70.31,70.31,0,0,1,0-10.86Z" style="fill: rgb(250, 250, 250); transform-origin: 91.75px 451.05px 0px;" id="elsqud4n654e" class="animable"></path><path d="M98.36,445.71c0,.12-8.61.21-19.23.21s-19.24-.09-19.24-.21,8.61-.2,19.24-.2S98.36,445.6,98.36,445.71Z" style="fill: rgb(250, 250, 250); transform-origin: 79.125px 445.715px 0px;" id="elu7rjv6mgeif" class="animable"></path><polygon points="719.15 57.97 719.15 143.13 609.16 143.13 605.19 58.56 719.15 57.97" style="fill: rgb(224, 224, 224); transform-origin: 662.17px 100.55px 0px;" id="ele9r54yrsvmc" class="animable"></polygon><g id="elt4ws2jwtb1e"><rect x="617.86" y="45.8" width="84.67" height="109.99" style="fill: rgb(245, 245, 245); transform-origin: 660.195px 100.795px 0px; transform: rotate(-90deg);" class="animable"></rect></g><path d="M715.61,143.54H604.77V58H715.61Zm-110-.84H714.77V58.88H605.61Z" style="fill: rgb(224, 224, 224); transform-origin: 660.19px 100.77px 0px;" id="elkna9w53xgx" class="animable"></path><rect x="617.11" y="67.16" width="86.17" height="64.82" style="fill: rgb(255, 255, 255); transform-origin: 660.195px 99.57px 0px;" id="elji3gfa5m8v" class="animable"></rect><path d="M703.27,67.16h-1.63l-4.69,0-17.67.05-62.17.1.19-.2c0,19.44,0,41.51,0,64.81h0l-.21-.22,86.16,0-.18.18c0-19.59.07-35.77.1-47.07,0-5.65,0-10.08,0-13.1,0-1.51,0-2.66,0-3.45s0-1.2,0-1.2,0,.39,0,1.16,0,1.92,0,3.41c0,3,0,7.44.05,13.07,0,11.32,0,27.54.09,47.18v.18h-.18l-86.16,0h-.22V132h0c0-23.3,0-45.37,0-64.81V67h.2l62.29.1,17.63,0,4.66,0h1.58Z" style="fill: rgb(224, 224, 224); transform-origin: 660.03px 99.53px 0px;" id="elv0xisaczqg" class="animable"></path><path d="M605.19,58.26a10,10,0,0,1,1.86,1.15c1.12.75,2.65,1.81,4.3,3s3.11,2.38,4.15,3.24a11.12,11.12,0,0,1,1.61,1.48,10.89,10.89,0,0,1-1.8-1.23l-4.22-3.14-4.22-3.13A11.2,11.2,0,0,1,605.19,58.26Z" style="fill: rgb(224, 224, 224); transform-origin: 611.15px 62.695px 0px;" id="elkfswlz0k6t" class="animable"></path><path d="M715.19,58.46A63.49,63.49,0,0,1,709.36,63a61.88,61.88,0,0,1-6.09,4.17,63.49,63.49,0,0,1,5.83-4.53A60.53,60.53,0,0,1,715.19,58.46Z" style="fill: rgb(224, 224, 224); transform-origin: 709.23px 62.815px 0px;" id="el9fkf3kl1dm" class="animable"></path><line x1="715.19" y1="143.12" x2="702.84" y2="131.98" style="fill: rgb(255, 255, 255); transform-origin: 709.015px 137.55px 0px;" id="el0r7shemwkoqh" class="animable"></line><path d="M702.83,132a75.92,75.92,0,0,1,6.33,5.41,80.86,80.86,0,0,1,6,5.73,75.92,75.92,0,0,1-6.33-5.41A78.51,78.51,0,0,1,702.83,132Z" style="fill: rgb(224, 224, 224); transform-origin: 708.995px 137.57px 0px;" id="elh1s29avcgkt" class="animable"></path><path d="M605.19,143.12a74.5,74.5,0,0,1,5.75-5.48,73.23,73.23,0,0,1,6-5.16,70.06,70.06,0,0,1-5.74,5.49A73.25,73.25,0,0,1,605.19,143.12Z" style="fill: rgb(224, 224, 224); transform-origin: 611.065px 137.8px 0px;" id="elyjcgez526e9" class="animable"></path><path d="M680.14,79.11c0,.13-8.53.23-19,.23s-19-.1-19-.23,8.52-.23,19-.23S680.14,79,680.14,79.11Z" style="fill: rgb(224, 224, 224); transform-origin: 661.14px 79.11px 0px;" id="eltzomj6730wi" class="animable"></path><path d="M688.71,100.54c0,.13-12.77.23-28.52.23s-28.53-.1-28.53-.23,12.77-.22,28.53-.22S688.71,100.42,688.71,100.54Z" style="fill: rgb(224, 224, 224); transform-origin: 660.185px 100.545px 0px;" id="elza8iur8rtf" class="animable"></path><path d="M688.71,105.84c0,.12-12.77.23-28.52.23s-28.53-.11-28.53-.23,12.77-.23,28.53-.23S688.71,105.71,688.71,105.84Z" style="fill: rgb(224, 224, 224); transform-origin: 660.185px 105.84px 0px;" id="eljp2lfjplljs" class="animable"></path><path d="M628.84,89.77a3.4,3.4,0,0,1,3.62-3.42,3.49,3.49,0,0,1,2.84,1.24l-1.19,1.07a1.93,1.93,0,0,0-1.55-.77,1.89,1.89,0,0,0,0,3.77,2,2,0,0,0,1.55-.77L635.3,92a3.49,3.49,0,0,1-2.84,1.24A3.4,3.4,0,0,1,628.84,89.77Z" style="fill: rgb(224, 224, 224); transform-origin: 632.07px 89.795px 0px;" id="el4mx2v1uk7jl" class="animable"></path><path d="M641.42,91.63v1.44h-5.29V86.48h5.17v1.44H638V89h2.93v1.39H638v1.21Z" style="fill: rgb(224, 224, 224); transform-origin: 638.775px 89.775px 0px;" id="elr9w4z5qu6s" class="animable"></path><path d="M645.34,91.32h-1v1.75h-1.86V86.48h3c1.8,0,2.93.93,2.93,2.44A2.19,2.19,0,0,1,647.11,91l1.42,2.07h-2Zm0-3.37h-1v1.93h1c.77,0,1.15-.36,1.15-1S646.13,88,645.36,88Z" style="fill: rgb(224, 224, 224); transform-origin: 645.505px 89.775px 0px;" id="el98b6vntzusb" class="animable"></path><path d="M650.73,88h-2V86.48h5.9V88h-2v5.11h-1.87Z" style="fill: rgb(224, 224, 224); transform-origin: 651.68px 89.795px 0px;" id="elgorbkur5ypn" class="animable"></path><path d="M655.31,86.48h1.86v6.59h-1.86Z" style="fill: rgb(224, 224, 224); transform-origin: 656.24px 89.775px 0px;" id="eluto43curqcg" class="animable"></path><path d="M660.37,87.92v1.45h2.91v1.44h-2.91v2.26H658.5V86.48h5.17v1.44Z" style="fill: rgb(224, 224, 224); transform-origin: 661.085px 89.775px 0px;" id="elsf9hbcn8pjn" class="animable"></path><path d="M664.55,86.48h1.86v6.59h-1.86Z" style="fill: rgb(224, 224, 224); transform-origin: 665.48px 89.775px 0px;" id="el7djyyn75pmb" class="animable"></path><path d="M667.4,89.77A3.41,3.41,0,0,1,671,86.35a3.48,3.48,0,0,1,2.83,1.24l-1.19,1.07a1.93,1.93,0,0,0-1.55-.77,1.89,1.89,0,0,0,0,3.77,2,2,0,0,0,1.55-.77L673.86,92A3.48,3.48,0,0,1,671,93.2,3.41,3.41,0,0,1,667.4,89.77Z" style="fill: rgb(224, 224, 224); transform-origin: 670.63px 89.776px 0px;" id="el2hxaenv51mc" class="animable"></path><path d="M679,91.79H676.2l-.51,1.28h-1.9l2.9-6.59h1.84l2.92,6.59h-1.94Zm-.54-1.38-.85-2.1-.85,2.1Z" style="fill: rgb(224, 224, 224); transform-origin: 677.62px 89.775px 0px;" id="elto7dquufvs" class="animable"></path><path d="M683.05,88h-2V86.48h5.9V88h-2v5.11h-1.87Z" style="fill: rgb(224, 224, 224); transform-origin: 684px 89.795px 0px;" id="elkfcu8okoyz" class="animable"></path><path d="M692.92,91.63v1.44h-5.29V86.48h5.17v1.44h-3.33V89h2.93v1.39h-2.93v1.21Z" style="fill: rgb(224, 224, 224); transform-origin: 690.275px 89.775px 0px;" id="eldvxa5k6r9vn" class="animable"></path><path d="M667.67,119a6.64,6.64,0,1,1-6.64-6.63A6.64,6.64,0,0,1,667.67,119Z" style="fill: rgb(224, 224, 224); transform-origin: 661.03px 119.01px 0px;" id="el2f39hae19j9" class="animable"></path><path d="M661,125.66a6.66,6.66,0,1,1,6.66-6.66A6.66,6.66,0,0,1,661,125.66Zm0-13.27a6.62,6.62,0,1,0,6.62,6.61A6.62,6.62,0,0,0,661,112.39Z" style="fill: rgb(224, 224, 224); transform-origin: 661px 119px 0px;" id="elozcfrub7mnl" class="animable"></path><path d="M647.53,119a139.07,139.07,0,0,1-16,0,145.38,145.38,0,0,1,16,0Z" style="fill: rgb(224, 224, 224); transform-origin: 639.53px 119.005px 0px;" id="elhj4vfarb11" class="animable"></path><path d="M691.39,119a174.25,174.25,0,0,1-17.9,0c0-.12,4-.22,9-.22S691.39,118.88,691.39,119Z" style="fill: rgb(224, 224, 224); transform-origin: 682.44px 119.005px 0px;" id="elx083ybmovhp" class="animable"></path><path d="M643.4,117.75a2,2,0,0,1-.1-.55,5.94,5.94,0,0,1,1.1-3.93,1.36,1.36,0,0,1,.69-.46,1,1,0,0,1,.88.19,1.6,1.6,0,0,1,.55,1.73,5.06,5.06,0,0,1-1,1.73,8.83,8.83,0,0,1-1.46,1.55,4.42,4.42,0,0,1-2.11,1,3.38,3.38,0,0,1-2.41-.54,2.58,2.58,0,0,1-1.06-2.37,7.88,7.88,0,0,1,.71-2.58,3.08,3.08,0,0,1,.87-1.14,1.89,1.89,0,0,1,1.46-.36,1.41,1.41,0,0,1,1.1,1.09,2.93,2.93,0,0,1-.09,1.5,9.07,9.07,0,0,1-1.31,2.53,5.75,5.75,0,0,1-2.11,1.81,4.23,4.23,0,0,1-2.68.34,3.16,3.16,0,0,1-2.12-1.5,4.21,4.21,0,0,1-.57-2.4,6.23,6.23,0,0,1,.59-2.22c.3-.64.66-1.41,1.47-1.61a1,1,0,0,1,1,.47,2.11,2.11,0,0,1,.26,1,6.49,6.49,0,0,1-.79,3.27,6.6,6.6,0,0,1-1.59,2,6.21,6.21,0,0,1-1.34.87,2.82,2.82,0,0,1-.52.19,9.56,9.56,0,0,0,1.75-1.19,7,7,0,0,0,1.48-2,6.29,6.29,0,0,0,.69-3.13,1.74,1.74,0,0,0-.23-.82.61.61,0,0,0-.66-.31,1.31,1.31,0,0,0-.71.53,4.19,4.19,0,0,0-.49.89,4.61,4.61,0,0,0,0,4.26,2.82,2.82,0,0,0,1.86,1.29,3.87,3.87,0,0,0,2.4-.32,7,7,0,0,0,3.18-4.07,2.48,2.48,0,0,0,.08-1.26,1,1,0,0,0-.74-.76,1.49,1.49,0,0,0-1.11.28,2.56,2.56,0,0,0-.74,1,7.45,7.45,0,0,0-.68,2.42,2.17,2.17,0,0,0,.87,2,3,3,0,0,0,2.12.48,4,4,0,0,0,1.92-.87,8.21,8.21,0,0,0,1.43-1.46,5.12,5.12,0,0,0,.94-1.6,1.28,1.28,0,0,0-.42-1.42.84.84,0,0,0-1.2.21,5.63,5.63,0,0,0-1,2.21A8.08,8.08,0,0,0,643.4,117.75Z" style="fill: rgb(235, 235, 235); transform-origin: 639.705px 115.461px 0px;" id="el27z1ihkktr2" class="animable"></path><path d="M689.29,116.69s0,0-.17.1-.29.14-.53.23a17,17,0,0,1-2.12.73,19.63,19.63,0,0,1-5.74.73c-.79,0-1.64-.16-2.47-.06a1.67,1.67,0,0,0-1.07.55,1,1,0,0,0-.13,1.14,6.42,6.42,0,0,0,.81,1.16c.32.39.64.77,1,1.16s.7.76,1.07,1.14a3.61,3.61,0,0,0,1.22.94,1.07,1.07,0,0,0,1.25-.45,2.29,2.29,0,0,0,.38-1.52,36.17,36.17,0,0,1,1.67-15.19l.19-.57.23.55a12.57,12.57,0,0,1,.89,4,13,13,0,0,1-.9,5.53,12.14,12.14,0,0,1-1.3,2.41,3.85,3.85,0,0,1-2.08,1.76,1.28,1.28,0,0,1-1.37-.48,2.59,2.59,0,0,1-.36-1.33,13.2,13.2,0,0,1,.08-2.52,13.92,13.92,0,0,1,1.38-4.56l.15-.28.19.25a3.06,3.06,0,1,1-4.68-.14,1.6,1.6,0,0,1,.77-.53.8.8,0,0,1,.89.25,1.18,1.18,0,0,1,.21.83,2.63,2.63,0,0,1-.16.77,9.74,9.74,0,0,1-2.46,3.83,8.34,8.34,0,0,1-.92.78,3.24,3.24,0,0,1-.35.22,1.79,1.79,0,0,1,.31-.27c.2-.18.51-.44.88-.81a10.13,10.13,0,0,0,2.32-3.82,1.6,1.6,0,0,0,0-1.37c-.3-.38-.92-.12-1.25.31a2.84,2.84,0,0,0-.2,3.36,2.69,2.69,0,1,0,4.35-3.17l.34,0a13.44,13.44,0,0,0-1.33,4.43,14.16,14.16,0,0,0-.06,2.44,2.11,2.11,0,0,0,.28,1.1.85.85,0,0,0,.92.32,2.62,2.62,0,0,0,1-.6,6.65,6.65,0,0,0,.8-1,12.07,12.07,0,0,0,1.24-2.33,12.6,12.6,0,0,0,.87-5.33,12,12,0,0,0-.86-3.82h.42a36,36,0,0,0-1.68,15,2.81,2.81,0,0,1-.47,1.77,1.73,1.73,0,0,1-.75.58,1.41,1.41,0,0,1-1,0,3.75,3.75,0,0,1-1.35-1c-.38-.38-.74-.77-1.08-1.16s-.68-.79-1-1.18a7.16,7.16,0,0,1-.85-1.24,1.35,1.35,0,0,1,.2-1.49,2,2,0,0,1,1.27-.64,5.69,5.69,0,0,1,1.31,0c.42,0,.82.06,1.21.07.78,0,1.52,0,2.21,0a19.85,19.85,0,0,0,3.48-.57,18.69,18.69,0,0,0,2.13-.65Z" style="fill: rgb(235, 235, 235); transform-origin: 682.075px 115.891px 0px;" id="elkhcatu8fmz" class="animable"></path><path d="M343.83,283.55a14.56,14.56,0,0,0,8.68-13.48c0-8-6.06-14.6-13.6-14.63S325.22,261.9,325.19,270a14.53,14.53,0,0,0,8.7,13.6c-21,3.17-20.07,26-20.07,26l49.72.23S364.67,286.7,343.83,283.55Z" style="fill: rgb(235, 235, 235); transform-origin: 338.682px 282.635px 0px;" id="elk2xxyakt6ra" class="animable"></path><path d="M455.49,62.63l7.84,1.73s1.45-6.58,8.32-5.19a6.5,6.5,0,0,1,5.24,5.41,7.21,7.21,0,0,1-2,6.23c-1.81,1.89-5.17,3.24-10.24,1.14l-3.91,17.68,7.75,1.71L470.82,81S482.31,80.58,485,68.6c2.53-11.46-7.16-16.4-11.56-17.37C470,50.49,458.4,48.77,455.49,62.63Z" style="fill: rgb(235, 235, 235); transform-origin: 470.452px 71.0407px 0px;" id="el3d2skvpsio" class="animable"></path><g id="elkhqano2f12"><rect x="459.05" y="94.04" width="8.06" height="7.52" style="fill: rgb(235, 235, 235); transform-origin: 463.08px 97.8px 0px; transform: rotate(12.46deg);" class="animable"></rect></g><path d="M170.66,113.61l6.13-2.67s-2.23-5.15,3.07-7.57a5.44,5.44,0,0,1,6.19,1.08,6,6,0,0,1,1.72,5.16c-.3,2.16-1.9,4.71-6.34,5.78l6,13.83,6.06-2.64-3.52-8.1a12.91,12.91,0,0,0,3.47-15.26c-3.9-9-12.84-7.55-16.29-6.06C174.53,98.31,165.84,102.84,170.66,113.61Z" style="fill: rgb(245, 245, 245); transform-origin: 181.916px 112.635px 0px;" id="elhgmlgpxnskl" class="animable"></path><g id="ele7x1bkrl5"><rect x="189.63" y="130.47" width="6.71" height="6.27" style="fill: rgb(245, 245, 245); transform-origin: 192.985px 133.605px 0px; transform: rotate(-23.5deg);" class="animable"></rect></g><path d="M339.59,346.67l6.11,2.73s2.29-5.12,7.66-2.83a5.41,5.41,0,0,1,3.37,5.29,6,6,0,0,1-2.65,4.75c-1.8,1.24-4.76,1.78-8.55-.78l-6.16,13.76,6,2.7,3.61-8.07s9.44,1.6,13.61-7.72c4-8.93-3.08-14.58-6.51-16.11C353.5,339.21,344.3,335.85,339.59,346.67Z" style="fill: rgb(245, 245, 245); transform-origin: 351.575px 355.625px 0px;" id="el0aoxvsk54tcs" class="animable"></path><g id="elfm61x8r9xt"><rect x="336.52" y="373.51" width="6.71" height="6.27" style="fill: rgb(245, 245, 245); transform-origin: 339.875px 376.645px 0px; transform: rotate(24.11deg);" class="animable"></rect></g><rect x="31.83" y="59.72" width="104.65" height="173.23" style="fill: rgb(224, 224, 224); transform-origin: 84.155px 146.335px 0px;" id="elox81s30w1id" class="animable"></rect><rect x="28.35" y="59.72" width="104.65" height="173.23" style="fill: rgb(235, 235, 235); transform-origin: 80.675px 146.335px 0px;" id="elq1am6dpuhdh" class="animable"></rect><rect x="32.8" y="63.23" width="95.74" height="166.21" style="fill: rgb(255, 255, 255); transform-origin: 80.67px 146.335px 0px;" id="ely49yteoqj9e" class="animable"></rect><rect x="51.03" y="84.83" width="58.87" height="123.01" style="fill: rgb(235, 235, 235); transform-origin: 80.465px 146.335px 0px;" id="eltkdnscoxuss" class="animable"></rect><path d="M51,164.31c-.14-11.49,10.2-22.71,21.58-24.31,5.42-.76,11.19.31,16.26-1.77,9-3.71,11.93-15.73,21-19.3l.42,88.91H51Z" style="fill: rgb(224, 224, 224); transform-origin: 80.6293px 163.385px 0px;" id="elymqizm9utca" class="animable"></path></g><g id="freepik--Floor--inject-3" style="transform-origin: 373px 471.31px 0px;" class="animable"><path d="M725.34,471.31c0,.14-157.76.26-352.32.26s-352.36-.12-352.36-.26,157.72-.26,352.36-.26S725.34,471.17,725.34,471.31Z" style="fill: rgb(38, 50, 56); transform-origin: 373px 471.31px 0px;" id="elemdoa3jpcew" class="animable"></path></g><g id="freepik--Tubes--inject-3" style="transform-origin: 613.04px 404.15px 0px;" class="animable"><path d="M559.83,344.76,561,446.12a10.57,10.57,0,0,0,10.55,10.19h0a10.57,10.57,0,0,0,10.58-10.87V345Z" style="fill: rgb(224, 224, 224); transform-origin: 570.982px 400.535px 0px;" id="elizzlaxwpei8" class="animable"></path><path d="M562.69,396.73,562.8,445a9,9,0,0,0,8.93,8.62h0a8.94,8.94,0,0,0,8.95-9.19l-.35-47.52Z" style="fill: rgb(38, 38, 38); transform-origin: 571.687px 425.175px 0px;" id="elwk3w0y2yqlc" class="animable"></path><rect x="553.26" y="337.51" width="35.39" height="21.74" rx="2.19" style="fill: rgb(38, 38, 38); transform-origin: 570.955px 348.38px 0px;" id="elvc6lubs5j9" class="animable"></rect><rect x="565.81" y="372.76" width="11.76" height="52.42" style="fill: rgb(250, 250, 250); transform-origin: 571.69px 398.97px 0px;" id="elm0k5xo508w9" class="animable"></rect><path d="M577.57,425.18a.9.9,0,0,1,0-.28c0-.2,0-.46,0-.78,0-.72,0-1.72,0-3,0-2.63,0-6.38-.08-11.06,0-9.38-.06-22.44-.11-37.31l.26.26H565.81c.52-.52.15-.14.26-.25v8c0,2.62,0,5.2,0,7.71,0,5,0,9.83,0,14.3,0,8.94-.06,16.61-.08,22.4l-.15-.15,8.62.08,2.32,0,.6,0h.22l-.19,0h-.58l-2.28,0-8.71.08h-.15v-.15c0-5.79,0-13.46-.08-22.4,0-4.47,0-9.27,0-14.3,0-2.51,0-5.09,0-7.71v-8c.12-.12-.26.25.26-.27h12v.26c0,14.94-.08,28.06-.11,37.49,0,4.65-.06,8.39-.08,11q0,1.88,0,2.94l0,.75A2,2,0,0,1,577.57,425.18Z" style="fill: rgb(38, 50, 56); transform-origin: 571.728px 398.765px 0px;" id="el0gnd79the8m" class="animable"></path><path d="M558.52,359.31a105.56,105.56,0,0,1-.26-10.58,105.69,105.69,0,0,1,.26-10.59c.14,0,.26,4.74.26,10.59S558.66,359.31,558.52,359.31Z" style="fill: rgb(38, 50, 56); transform-origin: 558.503px 348.725px 0px;" id="el67dm7i8x667" class="animable"></path><path d="M563.51,359.31c-.14,0-.26-4.74-.26-10.58s.12-10.59.26-10.59a105.69,105.69,0,0,1,.26,10.59A105.56,105.56,0,0,1,563.51,359.31Z" style="fill: rgb(38, 50, 56); transform-origin: 563.527px 348.725px 0px;" id="eljt3ca3tpq0m" class="animable"></path><path d="M568.51,359.31c-.14,0-.26-4.74-.26-10.58s.12-10.59.26-10.59.26,4.74.26,10.59S568.65,359.31,568.51,359.31Z" style="fill: rgb(38, 50, 56); transform-origin: 568.51px 348.725px 0px;" id="elvohfvbbunm" class="animable"></path><path d="M573.51,359.31a105.56,105.56,0,0,1-.26-10.58,105.69,105.69,0,0,1,.26-10.59c.14,0,.26,4.74.26,10.59S573.65,359.31,573.51,359.31Z" style="fill: rgb(38, 50, 56); transform-origin: 573.493px 348.725px 0px;" id="el4wdsj3pmwmv" class="animable"></path><path d="M578.5,359.31c-.14,0-.26-4.74-.26-10.58s.12-10.59.26-10.59a103.75,103.75,0,0,1,.27,10.59A103.63,103.63,0,0,1,578.5,359.31Z" style="fill: rgb(38, 50, 56); transform-origin: 578.522px 348.725px 0px;" id="elcrmpd4apk0s" class="animable"></path><path d="M583.5,359.31c-.14,0-.26-4.74-.26-10.58s.12-10.59.26-10.59a105.69,105.69,0,0,1,.26,10.59A105.56,105.56,0,0,1,583.5,359.31Z" style="fill: rgb(38, 50, 56); transform-origin: 583.517px 348.725px 0px;" id="elqlkhoxr5v3" class="animable"></path><rect x="569.68" y="387.16" width="4.01" height="30.8" rx="1.53" style="fill: rgb(224, 224, 224); transform-origin: 571.685px 402.56px 0px;" id="elx81irq9ws0j" class="animable"></rect><path d="M573.71,381.61a2,2,0,1,1-2-2A2,2,0,0,1,573.71,381.61Z" style="fill: rgb(38, 38, 38); transform-origin: 571.71px 381.61px 0px;" id="el3w45jqotcx9" class="animable"></path><path d="M601.38,344.76l1.13,101.36a10.58,10.58,0,0,0,10.55,10.19h0a10.57,10.57,0,0,0,10.58-10.87V345Z" style="fill: rgb(224, 224, 224); transform-origin: 612.512px 400.535px 0px;" id="elkz8q5771wgb" class="animable"></path><path d="M604.24,396.73l.12,48.28a8.93,8.93,0,0,0,8.92,8.62h0a8.94,8.94,0,0,0,9-9.19l-.35-47.52Z" style="fill: rgb(38, 38, 38); transform-origin: 613.262px 425.18px 0px;" id="el5zvc0j2m334" class="animable"></path><rect x="594.81" y="337.51" width="35.39" height="21.74" rx="2.19" style="fill: rgb(38, 38, 38); transform-origin: 612.505px 348.38px 0px;" id="elkin1avqglh" class="animable"></rect><rect x="607.36" y="372.76" width="11.76" height="52.42" style="fill: rgb(250, 250, 250); transform-origin: 613.24px 398.97px 0px;" id="els5sdq7f4wzc" class="animable"></rect><path d="M619.12,425.18a1.58,1.58,0,0,1,0-.28l0-.78c0-.72,0-1.72,0-3,0-2.63,0-6.38-.07-11.06,0-9.38-.07-22.44-.12-37.31l.26.26H607.36c.52-.52.15-.14.26-.25v8c0,2.62,0,5.2,0,7.71,0,5,0,9.83,0,14.3,0,8.94-.06,16.61-.08,22.4l-.15-.15,8.62.08,2.32,0,.6,0h.22l-.19,0h-.58l-2.28,0-8.71.08h-.15v-.15c0-5.79-.05-13.46-.08-22.4,0-4.47,0-9.27,0-14.3,0-2.51,0-5.09,0-7.71v-8c.12-.12-.26.25.26-.27h12v.26c0,14.94-.08,28.06-.11,37.49,0,4.65-.06,8.39-.08,11q0,1.88,0,2.94c0,.31,0,.55,0,.75A2,2,0,0,1,619.12,425.18Z" style="fill: rgb(38, 50, 56); transform-origin: 613.278px 398.765px 0px;" id="el5eoai30jd7h" class="animable"></path><path d="M600.07,359.31a105.56,105.56,0,0,1-.26-10.58,105.69,105.69,0,0,1,.26-10.59c.14,0,.26,4.74.26,10.59S600.21,359.31,600.07,359.31Z" style="fill: rgb(38, 50, 56); transform-origin: 600.053px 348.725px 0px;" id="elh264a29d43f" class="animable"></path><path d="M605.06,359.31c-.14,0-.26-4.74-.26-10.58s.12-10.59.26-10.59a105.69,105.69,0,0,1,.26,10.59A105.56,105.56,0,0,1,605.06,359.31Z" style="fill: rgb(38, 50, 56); transform-origin: 605.077px 348.725px 0px;" id="elqtgiy2s9j7m" class="animable"></path><path d="M610.06,359.31c-.14,0-.26-4.74-.26-10.58s.12-10.59.26-10.59.26,4.74.26,10.59S610.2,359.31,610.06,359.31Z" style="fill: rgb(38, 50, 56); transform-origin: 610.06px 348.725px 0px;" id="elm9z1ow1su3m" class="animable"></path><path d="M615.06,359.31a105.56,105.56,0,0,1-.26-10.58,105.69,105.69,0,0,1,.26-10.59c.14,0,.26,4.74.26,10.59S615.2,359.31,615.06,359.31Z" style="fill: rgb(38, 50, 56); transform-origin: 615.043px 348.725px 0px;" id="elayrei18ahrh" class="animable"></path><path d="M620.06,359.31a105.56,105.56,0,0,1-.26-10.58,105.69,105.69,0,0,1,.26-10.59c.14,0,.26,4.74.26,10.59S620.2,359.31,620.06,359.31Z" style="fill: rgb(38, 50, 56); transform-origin: 620.043px 348.725px 0px;" id="elbefdv3f5r2d" class="animable"></path><path d="M625.05,359.31c-.14,0-.26-4.74-.26-10.58s.12-10.59.26-10.59a105.69,105.69,0,0,1,.26,10.59A105.56,105.56,0,0,1,625.05,359.31Z" style="fill: rgb(38, 50, 56); transform-origin: 625.067px 348.725px 0px;" id="elb1i2optgnib" class="animable"></path><rect x="611.23" y="387.16" width="4.01" height="30.8" rx="1.53" style="fill: rgb(224, 224, 224); transform-origin: 613.235px 402.56px 0px;" id="el3i72qavhkk4" class="animable"></rect><path d="M615.26,381.61a2,2,0,1,1-2-2A2,2,0,0,1,615.26,381.61Z" style="fill: rgb(38, 38, 38); transform-origin: 613.26px 381.61px 0px;" id="el2yo9a6hhb19" class="animable"></path><path d="M642.93,344.76l1.13,101.36a10.58,10.58,0,0,0,10.55,10.19h0a10.57,10.57,0,0,0,10.58-10.87V345Z" style="fill: rgb(224, 224, 224); transform-origin: 654.062px 400.535px 0px;" id="elixdbwn9h6v" class="animable"></path><path d="M645.79,396.73l.12,48.28a8.93,8.93,0,0,0,8.92,8.62h0a8.94,8.94,0,0,0,8.95-9.19l-.35-47.52Z" style="fill: rgb(38, 38, 38); transform-origin: 654.787px 425.18px 0px;" id="eloc26t2sr35d" class="animable"></path><rect x="636.36" y="337.51" width="35.39" height="21.74" rx="2.19" style="fill: rgb(38, 38, 38); transform-origin: 654.055px 348.38px 0px;" id="el10449yduus3e" class="animable"></rect><rect x="648.91" y="372.76" width="11.76" height="52.42" style="fill: rgb(250, 250, 250); transform-origin: 654.79px 398.97px 0px;" id="el2k7s0l4g7q7" class="animable"></rect><path d="M660.67,425.18a1.58,1.58,0,0,1,0-.28l0-.78c0-.72,0-1.72,0-3,0-2.63,0-6.38-.07-11.06,0-9.38-.07-22.44-.12-37.31l.26.26H648.91c.52-.52.15-.14.26-.25v8c0,2.62,0,5.2,0,7.71,0,5,0,9.83,0,14.3,0,8.94-.06,16.61-.08,22.4l-.15-.15,8.62.08,2.32,0,.6,0h.22l-.19,0h-.58l-2.28,0-8.71.08h-.15v-.15c0-5.79,0-13.46-.08-22.4,0-4.47,0-9.27,0-14.3,0-2.51,0-5.09,0-7.71v-8c.12-.12-.26.25.26-.27h12v.26c0,14.94-.08,28.06-.11,37.49,0,4.65-.06,8.39-.08,11q0,1.88,0,2.94l0,.75A2,2,0,0,1,660.67,425.18Z" style="fill: rgb(38, 50, 56); transform-origin: 654.828px 398.765px 0px;" id="elhm9u4cvl1an" class="animable"></path><path d="M641.62,359.31a105.56,105.56,0,0,1-.26-10.58,105.69,105.69,0,0,1,.26-10.59c.14,0,.26,4.74.26,10.59S641.76,359.31,641.62,359.31Z" style="fill: rgb(38, 50, 56); transform-origin: 641.603px 348.725px 0px;" id="el9jx6v4l7pyg" class="animable"></path><path d="M646.61,359.31c-.14,0-.26-4.74-.26-10.58s.12-10.59.26-10.59a103.75,103.75,0,0,1,.27,10.59A103.63,103.63,0,0,1,646.61,359.31Z" style="fill: rgb(38, 50, 56); transform-origin: 646.632px 348.725px 0px;" id="elw3xu1n1zcop" class="animable"></path><path d="M651.61,359.31c-.14,0-.26-4.74-.26-10.58s.12-10.59.26-10.59a105.69,105.69,0,0,1,.26,10.59A105.56,105.56,0,0,1,651.61,359.31Z" style="fill: rgb(38, 50, 56); transform-origin: 651.627px 348.725px 0px;" id="eleqtyhx72aee" class="animable"></path><path d="M656.61,359.31c-.14,0-.26-4.74-.26-10.58s.12-10.59.26-10.59.26,4.74.26,10.59S656.75,359.31,656.61,359.31Z" style="fill: rgb(38, 50, 56); transform-origin: 656.61px 348.725px 0px;" id="eldqa8yrfqquh" class="animable"></path><path d="M661.61,359.31a105.56,105.56,0,0,1-.26-10.58,105.69,105.69,0,0,1,.26-10.59c.14,0,.26,4.74.26,10.59S661.75,359.31,661.61,359.31Z" style="fill: rgb(38, 50, 56); transform-origin: 661.593px 348.725px 0px;" id="eloa2wi3lthfi" class="animable"></path><path d="M666.6,359.31c-.14,0-.26-4.74-.26-10.58s.12-10.59.26-10.59a105.69,105.69,0,0,1,.26,10.59A105.56,105.56,0,0,1,666.6,359.31Z" style="fill: rgb(38, 50, 56); transform-origin: 666.617px 348.725px 0px;" id="eln1gx7iazbdf" class="animable"></path><rect x="652.78" y="387.16" width="4.01" height="30.8" rx="1.53" style="fill: rgb(224, 224, 224); transform-origin: 654.785px 402.56px 0px;" id="el0gj58an32c3" class="animable"></rect><path d="M656.81,381.61a2,2,0,1,1-2-2A2,2,0,0,1,656.81,381.61Z" style="fill: rgb(38, 38, 38); transform-origin: 654.81px 381.61px 0px;" id="elm2o8xla3kk" class="animable"></path><rect x="536.89" y="463.87" width="152.36" height="6.92" style="fill: rgb(69, 90, 100); transform-origin: 613.07px 467.33px 0px;" id="el20ue5mi3pf6" class="animable"></rect><rect x="676.66" y="398.61" width="7.82" height="68.2" style="fill: rgb(69, 90, 100); transform-origin: 680.57px 432.71px 0px;" id="els5feh1k077" class="animable"></rect><rect x="540.76" y="398.61" width="7.82" height="68.2" style="fill: rgb(69, 90, 100); transform-origin: 544.67px 432.71px 0px;" id="elbpdkr0bjzsd" class="animable"></rect><path d="M688.87,463.9c0,.14-34,.26-76,.26s-76-.12-76-.26,34-.26,76-.26S688.87,463.75,688.87,463.9Z" style="fill: rgb(38, 50, 56); transform-origin: 612.87px 463.9px 0px;" id="el524xq1ovq7j" class="animable"></path><rect x="537.08" y="396.88" width="151.19" height="3.46" style="fill: rgb(69, 90, 100); transform-origin: 612.675px 398.61px 0px;" id="elvv5mciy3n6" class="animable"></rect><path d="M688.27,400.34s0-.3,0-.88,0-1.45,0-2.58l0,.05c-14.73.12-76.84.21-151.18.21h0l.26-.26v3.46l-.26-.26,106.95.1,32.34.08,8.81,0,2.29,0,.8,0-.76,0-2.26,0-8.74,0-32.29.08-107.14.11h-.26v-4h.27c74.34,0,136.45.09,151.18.2h.05v.06q0,1.71,0,2.61C688.28,400.06,688.27,400.34,688.27,400.34Z" style="fill: rgb(38, 50, 56); transform-origin: 612.58px 398.45px 0px;" id="elj1qhvnbvrg" class="animable"></path></g><g id="freepik--Clipboard--inject-3" style="transform-origin: 571.595px 194.951px 0px;" class="animable"><path d="M646.09,311.47h-149a6.39,6.39,0,0,1-6.54-6.23V98.54a6.4,6.4,0,0,1,6.54-6.24h149a6.4,6.4,0,0,1,6.55,6.24v206.7A6.39,6.39,0,0,1,646.09,311.47Z" style="fill: rgb(69, 90, 100); transform-origin: 571.595px 201.885px 0px;" id="elzv4tyrkozb" class="animable"></path><g id="elvh3mtzt0rnb"><g style="opacity: 0.3; transform-origin: 571.6px 289.15px 0px;" class="animable"><polygon points="503.49 304.52 639.39 303.99 640.94 285.14 636.78 273.78 502.26 288.87 503.49 304.52" id="elqln1igju9qs" style="transform-origin: 571.6px 289.15px 0px;" class="animable"></polygon></g></g><polygon points="643.08 299.67 498.78 299.67 498.78 101.57 644.44 101.57 643.08 299.67" style="fill: rgb(255, 255, 255); transform-origin: 571.61px 200.62px 0px;" id="elny3opbdn1v" class="animable"></polygon><path d="M544.14,86.57h62a6.33,6.33,0,0,1,6.33,6.33v15.34a0,0,0,0,1,0,0H537.82a0,0,0,0,1,0,0V92.9A6.33,6.33,0,0,1,544.14,86.57Z" style="fill: rgb(38, 50, 56); transform-origin: 575.145px 97.405px 0px;" id="elexma9l503ql" class="animable"></path><polygon points="584.66 78.43 565.66 78.43 567.88 94.72 582.2 94.72 584.66 78.43" style="fill: rgb(38, 50, 56); transform-origin: 575.16px 86.575px 0px;" id="elh9zuu4o5i6" class="animable"></polygon><path d="M607.7,86.57c0,.09-14.57.16-32.54.16s-32.54-.07-32.54-.16,14.56-.15,32.54-.15S607.7,86.49,607.7,86.57Z" style="fill: rgb(69, 90, 100); transform-origin: 575.16px 86.575px 0px;" id="elzwucg4ci25" class="animable"></path><path d="M539.49,104.74c-.09,0-.16-3.06-.16-6.84s.07-6.85.16-6.85.16,3.07.16,6.85S539.58,104.74,539.49,104.74Z" style="fill: rgb(69, 90, 100); transform-origin: 539.49px 97.895px 0px;" id="ela9y6t4o3ej" class="animable"></path><path d="M610.09,103.12a59.84,59.84,0,0,1-.16-6.21,60.12,60.12,0,0,1,.16-6.22c.08,0,.15,2.79.15,6.22S610.17,103.12,610.09,103.12Z" style="fill: rgb(69, 90, 100); transform-origin: 610.075px 96.905px 0px;" id="elcwxjbdsepqu" class="animable"></path><path d="M606.48,106c0,.09-15,.16-33.4.16s-33.41-.07-33.41-.16,15-.15,33.41-.15S606.48,105.92,606.48,106Z" style="fill: rgb(69, 90, 100); transform-origin: 573.075px 106.005px 0px;" id="eluj2x1bbkqb" class="animable"></path><g id="el1jy5efp4fx8"><g style="opacity: 0.3; transform-origin: 613.85px 99.6px 0px;" class="animable"><polygon points="612.5 92.77 615.59 101.94 615.59 106.43 612.11 106.43 612.5 92.77" id="elu7wcmu4d2dr" style="transform-origin: 613.85px 99.6px 0px;" class="animable"></polygon></g></g><rect x="559.43" y="131.03" width="56.72" height="6.02" rx="2.42" style="fill: rgb(38, 38, 38); transform-origin: 587.79px 134.04px 0px;" id="eln07wov5rv2b" class="animable"></rect><rect x="511.95" y="156.58" width="74.08" height="6.02" rx="2.42" style="fill: rgb(224, 224, 224); transform-origin: 548.99px 159.59px 0px;" id="el144ueh31ojgk" class="animable"></rect><path d="M513.21,169.71h0a1.49,1.49,0,0,0,1.48,1.5h85.14a1.5,1.5,0,0,0,1.49-1.5h0a1.5,1.5,0,0,0-1.49-1.51H514.69A1.5,1.5,0,0,0,513.21,169.71Z" style="fill: rgb(224, 224, 224); transform-origin: 557.265px 169.705px 0px;" id="el5v16gbe6apm" class="animable"></path><path d="M513.21,177h0a1.4,1.4,0,0,0,1.26,1.51h72.07a1.4,1.4,0,0,0,1.25-1.51h0a1.39,1.39,0,0,0-1.25-1.5H514.47A1.39,1.39,0,0,0,513.21,177Z" style="fill: rgb(224, 224, 224); transform-origin: 550.5px 177.005px 0px;" id="el6znhqf084o4" class="animable"></path><path d="M513.21,191.93h0a1.4,1.4,0,0,0,1.26,1.51h72.07a1.4,1.4,0,0,0,1.25-1.51h0a1.39,1.39,0,0,0-1.25-1.5H514.47A1.39,1.39,0,0,0,513.21,191.93Z" style="fill: rgb(224, 224, 224); transform-origin: 550.5px 191.935px 0px;" id="el99cfa3o6uj" class="animable"></path><path d="M513.21,184.28h0a1.52,1.52,0,0,0,1.55,1.5h88.6a1.52,1.52,0,0,0,1.54-1.5h0a1.53,1.53,0,0,0-1.54-1.51h-88.6A1.53,1.53,0,0,0,513.21,184.28Z" style="fill: rgb(224, 224, 224); transform-origin: 559.055px 184.275px 0px;" id="elmkv2kkvp2v" class="animable"></path><rect x="511.95" y="208.52" width="48.52" height="6.02" rx="2.42" style="fill: rgb(224, 224, 224); transform-origin: 536.21px 211.53px 0px;" id="el0b5vpoisl2o" class="animable"></rect><path d="M513.06,221.65h0a1.51,1.51,0,0,0,1.51,1.5H601.1a1.51,1.51,0,0,0,1.51-1.5h0a1.52,1.52,0,0,0-1.51-1.51H514.57A1.52,1.52,0,0,0,513.06,221.65Z" style="fill: rgb(224, 224, 224); transform-origin: 557.835px 221.645px 0px;" id="elg2buzqzcmsu" class="animable"></path><path d="M513.06,229h0c0,.83.5,1.5,1.11,1.5h63.52c.61,0,1.11-.67,1.11-1.5h0c0-.84-.5-1.51-1.11-1.51H514.17C513.56,227.46,513.06,228.13,513.06,229Z" style="fill: rgb(224, 224, 224); transform-origin: 545.93px 228.995px 0px;" id="elcmrefiad23" class="animable"></path><path d="M513.06,243.87h0c0,.83.5,1.51,1.11,1.51h63.52c.61,0,1.11-.68,1.11-1.51h0c0-.83-.5-1.5-1.11-1.5H514.17C513.56,242.37,513.06,243,513.06,243.87Z" style="fill: rgb(224, 224, 224); transform-origin: 545.93px 243.875px 0px;" id="elkr16wqjrfpi" class="animable"></path><path d="M513.06,236.22h0a1.44,1.44,0,0,0,1.36,1.51h78.1a1.44,1.44,0,0,0,1.36-1.51h0a1.43,1.43,0,0,0-1.36-1.5h-78.1A1.43,1.43,0,0,0,513.06,236.22Z" style="fill: rgb(224, 224, 224); transform-origin: 553.47px 236.225px 0px;" id="elmmpfwpvhau" class="animable"></path><rect x="511.95" y="259.15" width="48.52" height="6.02" rx="2.42" style="fill: rgb(224, 224, 224); transform-origin: 536.21px 262.16px 0px;" id="elsv0qc3lhglh" class="animable"></rect><path d="M513.06,272.28h0a1.51,1.51,0,0,0,1.51,1.5H601.1a1.51,1.51,0,0,0,1.51-1.5h0a1.52,1.52,0,0,0-1.51-1.51H514.57A1.52,1.52,0,0,0,513.06,272.28Z" style="fill: rgb(224, 224, 224); transform-origin: 557.835px 272.275px 0px;" id="el29gwm0dwrwx" class="animable"></path><path d="M513.06,279.59h0c0,.84.5,1.51,1.11,1.51h63.52c.61,0,1.11-.67,1.11-1.51h0c0-.83-.5-1.5-1.11-1.5H514.17C513.56,278.09,513.06,278.76,513.06,279.59Z" style="fill: rgb(224, 224, 224); transform-origin: 545.93px 279.595px 0px;" id="eljq0xw9mb72" class="animable"></path><path d="M513.06,286.85h0a1.43,1.43,0,0,0,1.36,1.5h78.1a1.43,1.43,0,0,0,1.36-1.5h0a1.44,1.44,0,0,0-1.36-1.51h-78.1A1.44,1.44,0,0,0,513.06,286.85Z" style="fill: rgb(224, 224, 224); transform-origin: 553.47px 286.845px 0px;" id="elvbqro8j3ser" class="animable"></path><circle cx="528.99" cy="134.04" r="13.62" style="fill: rgb(224, 224, 224); transform-origin: 528.99px 134.04px 0px;" id="ellm5m6yxoa4g" class="animable"></circle><rect x="614.8" y="208.52" width="13.96" height="13.96" rx="3.52" style="fill: rgb(224, 224, 224); transform-origin: 621.78px 215.5px 0px;" id="eltxco0qx5l9p" class="animable"></rect><rect x="614.8" y="260.76" width="13.96" height="13.96" rx="3.52" style="fill: rgb(224, 224, 224); transform-origin: 621.78px 267.74px 0px;" id="eltf2wz0754k" class="animable"></rect><rect x="614.8" y="155.84" width="13.96" height="13.96" rx="3.52" style="fill: rgb(224, 224, 224); transform-origin: 621.78px 162.82px 0px;" id="el3vxzjj9yijd" class="animable"></rect><polygon points="616.69 163.49 618.02 162.16 620.59 164.45 625.64 159.59 626.88 160.92 620.4 167.02 616.69 163.49" style="fill: rgb(255, 255, 255); transform-origin: 621.785px 163.305px 0px;" id="elptrnwucmmq" class="animable"></polygon><polygon points="616.69 214.61 618.02 213.28 620.59 215.56 625.64 210.71 626.88 212.04 620.4 218.14 616.69 214.61" style="fill: rgb(255, 255, 255); transform-origin: 621.785px 214.425px 0px;" id="elrng9bbo5ni9" class="animable"></polygon><path d="M530.31,134.28a3.73,3.73,0,0,0,2.21-3.44,3.49,3.49,0,1,0-7,0,3.72,3.72,0,0,0,2.22,3.47c-5.36.8-5.12,6.63-5.12,6.63l12.68.06S535.62,135.08,530.31,134.28Z" style="fill: rgb(255, 255, 255); transform-origin: 528.961px 134.17px 0px;" id="elda18o7ahn9s" class="animable"></path></g><g id="freepik--Microscope--inject-3" style="transform-origin: 214.504px 272.115px 0px;" class="animable"><polygon points="197.25 334.8 191.32 325.4 276.25 275.74 281.85 287.04 197.25 334.8" style="fill: rgb(224, 224, 224); transform-origin: 236.585px 305.27px 0px;" id="eloqujl50hau" class="animable"></polygon><path d="M197.25,334.8l.44-.27,1.25-.73,4.85-2.77,17.89-10.19,60-34-.1.34c-1.77-3.57-3.65-7.34-5.54-11.17l-.07-.13.37.11-85,49.54,0-.16,4.34,7,1.12,1.82c.25.42.37.64.37.64l-.39-.58-1.15-1.77-4.48-7-.06-.09.1-.06,84.85-49.8.24-.14.12.25.06.13,5.54,11.17.11.22-.21.12-60.31,33.93-17.92,10-4.83,2.69-1.25.68Z" style="fill: rgb(38, 50, 56); transform-origin: 236.6px 305.11px 0px;" id="elv5921hzpan" class="animable"></path><polygon points="222.3 389.47 230.57 384.27 235.16 391.43 226.72 397.86 221.03 395.1 222.3 389.47" style="fill: rgb(224, 224, 224); transform-origin: 228.095px 391.065px 0px;" id="el58fgxjp3374" class="animable"></polygon><g id="elnwsj1z791l9"><rect x="230.4" y="356.97" width="77.79" height="19.62" style="fill: rgb(38, 50, 56); transform-origin: 269.295px 366.78px 0px; transform: rotate(-17.93deg);" class="animable"></rect></g><path d="M187.79,259.47s.27.1.77.25a37.42,37.42,0,0,0,17,.85c10.14-1.82,14.64-4.13,23.24-9.47s13.92-15.29,15.09-17.78,1.16-8.54,1.16-8.54" style="fill: rgb(224, 224, 224); transform-origin: 216.42px 242.976px 0px;" id="el0glg066sc508" class="animable"></path><polygon points="122.81 165.82 167.38 243.07 207.68 219 164.9 140.56 122.81 165.82" style="fill: rgb(224, 224, 224); transform-origin: 165.245px 191.815px 0px;" id="ela8bxviuxkce" class="animable"></polygon><path d="M135.63,214.12s-36.15,58.76-12.82,120.37A164.75,164.75,0,0,0,148,379.41a115.85,115.85,0,0,0,57,38.42c10.23,3.11,22.14,6.65,25.74,7.42,6.69,1.43,16.72.95,9.07-11.94s-31.41-32-25.73-61.14l3.28-10-18.62,11.94s4.29,8.59-1,11.94S159,350.73,149,314.43c-8.92-32.29-4.35-58.74,1.57-71.07A8.63,8.63,0,0,1,161.53,239a18.41,18.41,0,0,1,5.85,4.09l17-15.09-36.78-36.16Z" style="fill: rgb(224, 224, 224); transform-origin: 178.764px 308.823px 0px;" id="el06ym6tzx541w" class="animable"></path><path d="M151.27,215.59c.12-.07,3.79,6.08,8.18,13.74s7.85,13.93,7.73,14-3.79-6.08-8.18-13.74S151.15,215.66,151.27,215.59Z" style="fill: rgb(38, 50, 56); transform-origin: 159.225px 229.46px 0px;" id="elcbnbu6055w" class="animable"></path><polygon points="122.81 165.82 125.3 155.87 154.42 138.8 164.9 140.56 122.81 165.82" style="fill: rgb(38, 50, 56); transform-origin: 143.855px 152.31px 0px;" id="elkaf8ijsevqi" class="animable"></polygon><polygon points="125.3 155.87 88.98 93.28 117.43 76.98 154.42 138.8 125.3 155.87" style="fill: rgb(38, 50, 56); transform-origin: 121.7px 116.425px 0px;" id="elhnebn92jdtv" class="animable"></polygon><g id="el3q8306lz44k"><rect x="83.74" y="81.34" width="37.77" height="6.64" rx="2.97" style="fill: rgb(38, 50, 56); transform-origin: 102.625px 84.66px 0px; transform: rotate(-30deg);" class="animable"></rect></g><polygon points="168.62 242.33 175.24 254.99 214.03 231.29 207.68 219 168.62 242.33" style="fill: rgb(38, 50, 56); transform-origin: 191.325px 236.995px 0px;" id="elgszsj76b29p" class="animable"></polygon><polygon points="184.37 255.24 181.8 250.98 240.09 215.85 243.93 221.19 184.37 255.24" style="fill: rgb(69, 90, 100); transform-origin: 212.865px 235.545px 0px;" id="elejpox3ufw0g" class="animable"></polygon><path d="M182.88,259.3h0a2.65,2.65,0,0,1,.94-3.67l60-34.76a3,3,0,0,1,3.95.86h0a3,3,0,0,1-1,4.33l-60.34,34.16A2.65,2.65,0,0,1,182.88,259.3Z" style="fill: rgb(38, 50, 56); transform-origin: 215.401px 240.512px 0px;" id="el0frzc6q5v1m" class="animable"></path><polygon points="192.57 347.18 197.88 356.31 225.27 339.54 220.81 330.62 192.57 347.18" style="fill: rgb(69, 90, 100); transform-origin: 208.92px 343.465px 0px;" id="elozibjnbd9r" class="animable"></polygon><polygon points="190.45 348.03 185.36 339.96 289.16 280.1 294.68 288.59 190.45 348.03" style="fill: rgb(38, 50, 56); transform-origin: 240.02px 314.065px 0px;" id="el2vltndurqg2" class="animable"></polygon><path d="M228.09,382.07l8,12.67,37.52-24.15a5.78,5.78,0,0,0,1.83-7.81h0a5.78,5.78,0,0,0-7.7-2.12Z" style="fill: rgb(69, 90, 100); transform-origin: 252.172px 377.354px 0px;" id="elxbbox5r35jm" class="animable"></path><path d="M272.75,365.84a2.48,2.48,0,1,1-2.48-2.48A2.48,2.48,0,0,1,272.75,365.84Z" style="fill: rgb(224, 224, 224); transform-origin: 270.27px 365.84px 0px;" id="elxm9wmoj1jp" class="animable"></path><path d="M128.59,442.75l54.83-69.63a17.16,17.16,0,0,1,17-6.19h0a17.15,17.15,0,0,1,13.67,16.56c.14,10.13.57,23.07,1.85,28.59,2.24,9.7,13.14,21.28,29.42,24.41s67.28,6.26,67.28,6.26V454H142.05Z" style="fill: rgb(224, 224, 224); transform-origin: 220.615px 410.283px 0px;" id="el7x852ofl44l" class="animable"></path><path d="M128.59,442.75s.31.24.89.72l2.59,2.13,10,8.34-.06,0,170.56-.16-.25.26V442.75l.24.26c-10.88-.68-22.28-1.5-33.88-2.47-8-.69-16-1.42-23.75-2.37a113.58,113.58,0,0,1-11.56-1.85,42.54,42.54,0,0,1-10.75-4.14c-6.67-3.68-12.37-9.11-15.51-15.82a11.8,11.8,0,0,1-.54-1.27c-.15-.44-.35-.86-.47-1.3a27.28,27.28,0,0,1-.68-2.66c-.33-1.79-.52-3.59-.69-5.37-.34-3.57-.51-7.1-.65-10.59s-.22-6.94-.27-10.34a18,18,0,0,0-2.27-9.55,17,17,0,0,0-15.92-8.45A17,17,0,0,0,184,372.75c-.94,1.12-1.82,2.28-2.71,3.41l-10.26,13-31,39.21L131.58,439l-2.21,2.78-.78.95.72-.94c.5-.64,1.22-1.56,2.16-2.78l8.37-10.69L170.71,389,181,375.92c.9-1.13,1.77-2.29,2.73-3.43a16.77,16.77,0,0,1,3.32-3,17.3,17.3,0,0,1,17.9-1.16,17.61,17.61,0,0,1,7.07,6.74,18.44,18.44,0,0,1,2.34,9.77c.05,3.4.14,6.85.28,10.33s.32,7,.65,10.56.74,7.17,2.35,10.44c3.08,6.58,8.72,12,15.3,15.59a43,43,0,0,0,10.63,4.08,113.41,113.41,0,0,0,11.5,1.84c7.78.95,15.71,1.67,23.73,2.36,11.59,1,23,1.79,33.87,2.47l.24,0v11.76h-.26l-170.56-.15h0l0,0-10-8.46-2.54-2.15Z" style="fill: rgb(38, 50, 56); transform-origin: 220.75px 410.321px 0px;" id="elz5tsl60y2h" class="animable"></path><rect x="128.59" y="442.75" width="214.62" height="28.05" style="fill: rgb(224, 224, 224); transform-origin: 235.9px 456.775px 0px;" id="eljz5ou2kwp4i" class="animable"></rect><g id="el641kwu8ie1b"><circle cx="197.25" cy="382.27" r="10.91" style="fill: rgb(69, 90, 100); transform-origin: 197.25px 382.27px 0px; transform: rotate(-22.34deg);" class="animable"></circle></g><path d="M188.54,259.79c.18.95,0,5.58,0,5.58L192,267.6l3.32,27.81L214,292.7l-3.79-27.33,2.62-4.17-1.25-5.14Z" style="fill: rgb(224, 224, 224); transform-origin: 201.27px 275.735px 0px;" id="elui6gwwey4z" class="animable"></path><path d="M211.06,256a48.68,48.68,0,0,1,1.8,5.21l4.21.84,13.28,23.81,16.27-8.23-13.3-24.17,2.19-4.64-3.86-5Z" style="fill: rgb(224, 224, 224); transform-origin: 228.84px 264.84px 0px;" id="elrvfdilwvtl" class="animable"></path><path d="M231.65,244.78a53.77,53.77,0,0,1,3.86,4l4-.77L261,264.86,272.81,251,251.2,233.83l-1-4.83-4.91-2Z" style="fill: rgb(224, 224, 224); transform-origin: 252.23px 245.93px 0px;" id="el1t1ylkugb1b" class="animable"></path><circle cx="140.58" cy="196.52" r="24.66" style="fill: rgb(38, 50, 56); transform-origin: 140.58px 196.52px 0px;" id="el5zcfatqten6" class="animable"></circle><circle cx="140.58" cy="196.34" r="15.28" style="fill: rgb(69, 90, 100); transform-origin: 140.58px 196.34px 0px;" id="elndzyyam2uf" class="animable"></circle><path d="M118.67,79c.07.13-6.29,3.88-14.22,8.37s-14.4,8-14.47,7.91,6.29-3.87,14.22-8.36S118.6,78.83,118.67,79Z" style="fill: rgb(69, 90, 100); transform-origin: 104.325px 87.138px 0px;" id="elmav2d2fmz0d" class="animable"></path><path d="M153.36,139c.08.12-6.29,3.87-14.21,8.36s-14.41,8-14.48,7.91,6.3-3.87,14.22-8.36S153.29,138.89,153.36,139Z" style="fill: rgb(69, 90, 100); transform-origin: 139.015px 147.135px 0px;" id="el4ap6homz10d" class="animable"></path><path d="M209.81,265.46a81,81,0,0,1-8.93,1.48,77.49,77.49,0,0,1-9,1,81,81,0,0,1,8.93-1.48A77.49,77.49,0,0,1,209.81,265.46Z" style="fill: rgb(38, 50, 56); transform-origin: 200.845px 266.7px 0px;" id="elq7x0rjkggw" class="animable"></path><path d="M214.51,293c0,.08-1.08-.35-2.85-.72a20.69,20.69,0,0,0-7-.25,21.85,21.85,0,0,0-3.76.88A20,20,0,0,0,198,294.1c-1.59.84-2.47,1.55-2.53,1.47s.18-.22.57-.55a12.06,12.06,0,0,1,1.78-1.24,17.15,17.15,0,0,1,2.93-1.38,20.66,20.66,0,0,1,3.85-.94,18.78,18.78,0,0,1,7.14.41,12.79,12.79,0,0,1,2.05.7C214.27,292.78,214.52,292.91,214.51,293Z" style="fill: rgb(38, 50, 56); transform-origin: 204.986px 293.434px 0px;" id="elxb51n82ykj" class="animable"></path><path d="M232.65,253.67a78.64,78.64,0,0,1-7.68,4.61,76.88,76.88,0,0,1-7.93,4.16,78.64,78.64,0,0,1,7.68-4.61A74.57,74.57,0,0,1,232.65,253.67Z" style="fill: rgb(38, 50, 56); transform-origin: 224.845px 258.055px 0px;" id="el9zptskx2nuv" class="animable"></path><path d="M246.26,276.73c0,.1-1.09.06-2.8.33a18.51,18.51,0,0,0-11.41,6.64c-1.08,1.35-1.59,2.32-1.67,2.27a2.12,2.12,0,0,1,.29-.71,10.41,10.41,0,0,1,1.09-1.78,16.92,16.92,0,0,1,11.65-6.78,12.25,12.25,0,0,1,2.09-.07A2.39,2.39,0,0,1,246.26,276.73Z" style="fill: rgb(38, 50, 56); transform-origin: 238.32px 281.293px 0px;" id="elpyuj49rs82" class="animable"></path><path d="M251,233.44a14.42,14.42,0,0,1-1.57,2.19l-3.94,5.14L241.6,246a15.25,15.25,0,0,1-1.68,2.11,12.61,12.61,0,0,1,1.38-2.32c.92-1.38,2.25-3.27,3.78-5.29s3-3.8,4.08-5.06A13.34,13.34,0,0,1,251,233.44Z" style="fill: rgb(38, 50, 56); transform-origin: 245.46px 240.775px 0px;" id="elg76vfuyq8ht" class="animable"></path><path d="M272.37,251.18a17.34,17.34,0,0,0-2.75.7,11.73,11.73,0,0,0-5.15,4.29,24.26,24.26,0,0,0-2.83,6.24,20,20,0,0,1-.93,2.72,12.85,12.85,0,0,1,.57-2.83,21.36,21.36,0,0,1,2.76-6.42,11.22,11.22,0,0,1,5.45-4.35,7.6,7.6,0,0,1,2.1-.41A2,2,0,0,1,272.37,251.18Z" style="fill: rgb(38, 50, 56); transform-origin: 266.54px 258.118px 0px;" id="elltli5ji0ot" class="animable"></path><path d="M229.34,399a26.75,26.75,0,0,1-3.85-4.66,27.36,27.36,0,0,1-3.16-5.15,49.68,49.68,0,0,1,3.58,4.85A48.66,48.66,0,0,1,229.34,399Z" style="fill: rgb(38, 50, 56); transform-origin: 225.835px 394.095px 0px;" id="el15rmgh1nf90i" class="animable"></path><path d="M343.31,442.55c0,.14-48,.26-107.19.26s-107.2-.12-107.2-.26,48-.27,107.2-.27S343.31,442.4,343.31,442.55Z" style="fill: rgb(38, 50, 56); transform-origin: 236.115px 442.545px 0px;" id="elak1g7yprmnr" class="animable"></path></g><g id="freepik--speech-bubble--inject-3" style="transform-origin: 317.711px 124.84px 0px;" class="animable animator-hidden"><path d="M327.12,27.63a92.25,92.25,0,0,0-60.48,168.63l-.06,0c-.24-.16.23,26.19.23,26.19L296,209.06a93.93,93.93,0,0,0,12.24,2.12A92.26,92.26,0,1,0,327.12,27.63Z" style="fill: rgb(245, 245, 245); transform-origin: 317.852px 124.794px 0px;" id="elaq0yrhh2m2k" class="animable"></path><g id="elize9zccsa3"><circle cx="315.53" cy="119.36" r="81.67" style="fill: rgb(224, 224, 224); transform-origin: 315.53px 119.36px 0px; transform: rotate(-80.78deg);" class="animable"></circle></g><path d="M397.2,119.36s0-.44-.06-1.32,0-2.18-.18-3.88a81.2,81.2,0,0,0-2.33-14.73,82.46,82.46,0,0,0-9-21.74,82.74,82.74,0,0,0-20.72-23.16,80,80,0,0,0-15.58-9.3,79.14,79.14,0,0,0-18.73-5.91,81.1,81.1,0,0,0-21-1.16,82.49,82.49,0,0,0-10.91,1.53,86.55,86.55,0,0,0-10.89,3.11,81.56,81.56,0,0,0-44.5,39.08c-1,1.87-1.85,3.81-2.73,5.76s-1.6,4-2.25,6a80,80,0,0,0-3.1,12.6,81.54,81.54,0,0,0,0,26.21,78.6,78.6,0,0,0,3.1,12.6c.65,2.05,1.46,4,2.24,6s1.73,3.89,2.74,5.76a80,80,0,0,0,6.64,10.69,81.59,81.59,0,0,0,37.86,28.4A86.55,86.55,0,0,0,298.65,199a82.49,82.49,0,0,0,10.91,1.53,81.52,81.52,0,0,0,21-1.16,81.14,81.14,0,0,0,34.31-15.22A82.42,82.42,0,0,0,385.6,161a78.17,78.17,0,0,0,5.68-11.49,79.24,79.24,0,0,0,3.35-10.24A81.46,81.46,0,0,0,397,124.57c.16-1.7.13-3,.18-3.88s.06-1.33.06-1.33,0,.45,0,1.33,0,2.18-.12,3.89a79.78,79.78,0,0,1-5.56,25.06,77.88,77.88,0,0,1-5.66,11.54,82.81,82.81,0,0,1-20.75,23.31,81.56,81.56,0,0,1-34.45,15.34,83.32,83.32,0,0,1-32.1-.33,86.41,86.41,0,0,1-11-3.12,81.92,81.92,0,0,1-44.79-39.31c-1-1.87-1.87-3.83-2.75-5.79s-1.61-4-2.26-6.06a78.54,78.54,0,0,1-3.12-12.68,87.57,87.57,0,0,1-1.07-13.19,88.87,88.87,0,0,1,1.07-13.18,80.69,80.69,0,0,1,3.12-12.68c.66-2.06,1.47-4.06,2.26-6s1.75-3.92,2.76-5.8a80.23,80.23,0,0,1,6.68-10.75,82.06,82.06,0,0,1,38.1-28.54,86.41,86.41,0,0,1,11-3.12,83.52,83.52,0,0,1,32.1-.34A81.55,81.55,0,0,1,365.1,54.24a82.8,82.8,0,0,1,20.75,23.3,80.68,80.68,0,0,1,11.22,36.61c.14,1.71.09,3,.12,3.89S397.2,119.36,397.2,119.36Z" style="fill: rgb(38, 50, 56); transform-origin: 315.425px 119.389px 0px;" id="elql4fenrngg" class="animable"></path><g id="elig1fj4jft6g"><g style="opacity: 0.3; transform-origin: 369.185px 102.025px 0px;" class="animable"><path d="M368.91,102.08l.09.13.46-.37Z" style="fill: rgb(38, 38, 38); transform-origin: 369.185px 102.025px 0px;" id="elyxmzly2eq2" class="animable"></path></g></g><path d="M290.39,148.12a27.78,27.78,0,0,0,10.27-6.2,12.14,12.14,0,0,0,2.52-4.54,4.79,4.79,0,0,0-.63-4.38c-1.21-1.54-3.41-1.91-5.36-1.7-4.31.48-8.11,3.24-10.78,6.66s-4.39,7.47-6.07,11.47C284,150,286.74,149.36,290.39,148.12Z" style="fill: rgb(255, 255, 255); transform-origin: 291.895px 140.443px 0px;" id="el55uewxcivlu" class="animable"></path><path d="M297.9,139.73c.18.16-1.6,2.61-5.52,5.46a35.27,35.27,0,0,1-7.44,4.1,37.34,37.34,0,0,1-4.79,1.56c-1.7.44-3.46.71-5.17,1.1-3.41.71-6.37,2.21-7.61,4.8-.68,1.27-1.16,2.7-1.81,4a11.7,11.7,0,0,1-2.43,3.33,11.15,11.15,0,0,1-5.1,2.84c-1.35.31-2.11.21-2.13.09s.7-.34,1.88-.86a12.51,12.51,0,0,0,4.29-3.09,11,11,0,0,0,1.92-3c.53-1.21.93-2.65,1.67-4.16a9.38,9.38,0,0,1,3.64-4,17,17,0,0,1,5.22-2c1.81-.41,3.55-.65,5.15-1a37.21,37.21,0,0,0,4.58-1.37,41.74,41.74,0,0,0,7.32-3.53C295.54,141.53,297.67,139.49,297.9,139.73Z" style="fill: rgb(255, 255, 255); transform-origin: 276.906px 153.419px 0px;" id="ell9ojtxk217" class="animable"></path><path d="M278.16,127a19.59,19.59,0,0,0,7.29-4.4,8.83,8.83,0,0,0,1.79-3.21,3.45,3.45,0,0,0-.45-3.12,4.21,4.21,0,0,0-3.81-1.2,11.74,11.74,0,0,0-7.64,4.72,35,35,0,0,0-4.31,8.14A14.08,14.08,0,0,0,278.16,127Z" style="fill: rgb(255, 255, 255); transform-origin: 279.229px 121.52px 0px;" id="el7tnptqldj73" class="animable"></path><path d="M283.49,121c.13.11-1.13,1.85-3.92,3.87a25.44,25.44,0,0,1-8.67,4c-1.21.31-2.46.5-3.67.78-2.42.5-4.52,1.57-5.4,3.4-.48.91-.82,1.92-1.28,2.85a8.41,8.41,0,0,1-1.72,2.36,8,8,0,0,1-3.62,2c-1,.21-1.5.15-1.51.06s.49-.25,1.33-.61a8.9,8.9,0,0,0,3-2.19,7.59,7.59,0,0,0,1.36-2.16c.38-.86.67-1.88,1.19-2.95a6.65,6.65,0,0,1,2.58-2.82,12.05,12.05,0,0,1,3.7-1.41c1.29-.29,2.52-.46,3.66-.74a29.48,29.48,0,0,0,3.25-1A30,30,0,0,0,279,124C281.81,122.32,283.32,120.87,283.49,121Z" style="fill: rgb(255, 255, 255); transform-origin: 268.599px 130.697px 0px;" id="elouf125zj73b" class="animable"></path><path d="M314.88,159.84a19.65,19.65,0,0,0,7.29-4.39,8.87,8.87,0,0,0,1.79-3.22,3.43,3.43,0,0,0-.45-3.11,4.19,4.19,0,0,0-3.81-1.21,11.7,11.7,0,0,0-7.64,4.73,34.78,34.78,0,0,0-4.31,8.13A14.09,14.09,0,0,0,314.88,159.84Z" style="fill: rgb(255, 255, 255); transform-origin: 315.949px 154.36px 0px;" id="el4ifkbzfwc5h" class="animable"></path><path d="M320.21,153.89c.12.11-1.14,1.85-3.92,3.88a25.62,25.62,0,0,1-8.67,4c-1.21.32-2.46.5-3.67.78-2.42.5-4.52,1.57-5.4,3.4-.48.91-.82,1.92-1.28,2.85a8.62,8.62,0,0,1-1.72,2.36,8,8,0,0,1-3.62,2c-1,.22-1.5.15-1.51.06s.49-.24,1.33-.61a8.9,8.9,0,0,0,3-2.19,7.59,7.59,0,0,0,1.36-2.16c.38-.86.67-1.87,1.19-2.95a6.64,6.64,0,0,1,2.58-2.82,11.69,11.69,0,0,1,3.7-1.4c1.29-.3,2.52-.47,3.66-.75a29.48,29.48,0,0,0,3.25-1,30,30,0,0,0,5.19-2.51C318.53,155.17,320,153.72,320.21,153.89Z" style="fill: rgb(255, 255, 255); transform-origin: 305.319px 163.591px 0px;" id="elv2s3tfbvtm8" class="animable"></path><path d="M372.74,81.49c-1.86-4.84-8-13.8-14.28-17.65-12.57-7.67-29.16-8.22-41.6-.34s-20.05,22.22-21.4,36.88c-.67,7.17.11,14.68,3.62,21,4.27,7.63,12.15,12.68,20.43,15.48a47.7,47.7,0,0,0,27.4,1.31c9-2.39,17.16-8.06,21.91-16,4.52-7.59,5.8-13.5,6.52-22.31A51.55,51.55,0,0,0,372.74,81.49Z" style="fill: rgb(38, 38, 38); transform-origin: 335.312px 98.7078px 0px;" id="el89h3u95tqhp" class="animable"></path><g id="elk8q003q0z5i"><g style="opacity: 0.3; transform-origin: 318.732px 127.155px 0px;" class="animable"><path d="M319.65,126.49a.73.73,0,0,0-.43-.32,1.06,1.06,0,0,0-.87,0h0a.94.94,0,0,0-.49.39.77.77,0,0,0,.07.89c.2.25,1,.83,1.32.78s.13-.71.31-1A.72.72,0,0,0,319.65,126.49Z" style="fill: rgb(255, 255, 255); transform-origin: 318.732px 127.155px 0px;" id="ele9e64pqy4uq" class="animable"></path></g></g><g id="elqzbme1catb"><g style="opacity: 0.3; transform-origin: 307.729px 102.88px 0px;" class="animable"><path d="M310.3,101.75a1.9,1.9,0,0,0-1.19-.87,3,3,0,0,0-2.36-.08l-.05,0-.07,0h0a2.45,2.45,0,0,0-1.33,1.07,2.13,2.13,0,0,0,.17,2.42,2.56,2.56,0,0,0,2.34.84A3.28,3.28,0,0,0,310,103.8,2,2,0,0,0,310.3,101.75Z" style="fill: rgb(255, 255, 255); transform-origin: 307.729px 102.88px 0px;" id="elwxkjbmio0yi" class="animable"></path></g></g><g id="elaw7pvojnxv"><g style="opacity: 0.3; transform-origin: 361.408px 108.286px 0px;" class="animable"><path d="M362.92,107.57a1.16,1.16,0,0,0-.72-.53,1.78,1.78,0,0,0-1.43,0h0a1.47,1.47,0,0,0-.8.64,1.28,1.28,0,0,0,.1,1.47,1.54,1.54,0,0,0,1.42.51,2,2,0,0,0,1.29-.83A1.23,1.23,0,0,0,362.92,107.57Z" style="fill: rgb(255, 255, 255); transform-origin: 361.408px 108.286px 0px;" id="el2808wadeymy" class="animable"></path></g></g><g id="el5ya8q9tcx2h"><g style="opacity: 0.2; transform-origin: 349.373px 73.1055px 0px;" class="animable"><path d="M347.84,66.41a4.82,4.82,0,0,0-2.7,2.46c-1.47,2.72-1.5,2.85-1.32,5.73v.22a6.13,6.13,0,0,0,2,3.74,5.23,5.23,0,0,0,6,.77A6.37,6.37,0,0,0,355,74a8.18,8.18,0,0,0-2.3-5.85C351.44,66.87,349.58,65.89,347.84,66.41Z" style="fill: rgb(255, 255, 255); transform-origin: 349.373px 73.1055px 0px;" id="elcxyb1pz4oy" class="animable"></path></g></g><g id="elpmrilyu84f"><g style="opacity: 0.2; transform-origin: 311.992px 117.736px 0px;" class="animable"><path d="M306.35,112.46a5.27,5.27,0,0,0-.87,3.88c.39,3.34.44,3.47,2.4,5.93l.08.1.13.16-.06-.08a6.72,6.72,0,0,0,4.08,2.11,5.68,5.68,0,0,0,5.81-3.06,6.93,6.93,0,0,0-.45-6.7,8.91,8.91,0,0,0-5.7-3.78C309.84,110.63,307.57,110.91,306.35,112.46Z" style="fill: rgb(255, 255, 255); transform-origin: 311.992px 117.736px 0px;" id="el3u8u6xl8voj" class="animable"></path></g></g><g id="ela5t091mta1r"><g style="opacity: 0.3; transform-origin: 365.094px 99.8715px 0px;" class="animable"><path d="M369.17,98.07a3.11,3.11,0,0,0-1.89-1.38,4.66,4.66,0,0,0-3.76-.12l-.07,0-.12,0h.06a3.89,3.89,0,0,0-2.1,1.7,3.32,3.32,0,0,0,.27,3.85,4.07,4.07,0,0,0,3.71,1.34,5.2,5.2,0,0,0,3.38-2.17A3.23,3.23,0,0,0,369.17,98.07Z" style="fill: rgb(255, 255, 255); transform-origin: 365.094px 99.8715px 0px;" id="elq0o91llq1cd" class="animable"></path></g></g><g id="el5ljwwqgra57"><g style="opacity: 0.2; transform-origin: 333.28px 75.5336px 0px;" class="animable"><path d="M335.21,74.67a1.48,1.48,0,0,0-.9-.66,2.26,2.26,0,0,0-1.8-.06h0l-.05,0h0a1.91,1.91,0,0,0-1,.81,1.61,1.61,0,0,0,.13,1.85,1.93,1.93,0,0,0,1.77.64,2.47,2.47,0,0,0,1.62-1A1.54,1.54,0,0,0,335.21,74.67Z" style="fill: rgb(255, 255, 255); transform-origin: 333.28px 75.5336px 0px;" id="eluiw6h1yypgr" class="animable"></path></g></g><g id="el8hsln88uety"><circle cx="339.16" cy="66.92" r="2.65" style="fill: rgb(255, 255, 255); opacity: 0.2; transform-origin: 339.16px 66.92px 0px;" class="animable"></circle></g><g id="elgc7ytwe7uu"><path d="M354.67,101.41a19.38,19.38,0,1,1-38.76,0c0-10.7,10.2-20.6,20.9-20.6S354.67,90.71,354.67,101.41Z" style="opacity: 0.3; transform-origin: 335.29px 100.8px 0px;" class="animable"></path></g><path d="M298.51,112.38a2,2,0,0,1-.12-.52c-.07-.39-.15-.89-.25-1.49-.05-.33-.1-.69-.16-1.08s-.07-.82-.11-1.29a30.1,30.1,0,0,1-.14-3.16V103c0-.64.08-1.3.13-2,.06-1.39.3-2.84.52-4.38a48.37,48.37,0,0,1,7.4-18.68c.9-1.27,1.72-2.5,2.62-3.55.45-.53.84-1.07,1.28-1.54l1.26-1.35c.78-.88,1.6-1.56,2.27-2.2.35-.31.66-.62,1-.87l.86-.68,1.2-.91c.28-.21.43-.31.44-.29a2.33,2.33,0,0,1-.38.37l-1.13,1-.83.7c-.29.27-.59.58-.93.9-.65.66-1.45,1.35-2.2,2.24L310,73.11c-.42.48-.81,1-1.24,1.55-.88,1-1.68,2.28-2.56,3.54a50.18,50.18,0,0,0-7.33,18.5c-.23,1.52-.49,3-.56,4.33-.06.68-.14,1.34-.16,2s0,1.24,0,1.83c-.06,1.16,0,2.21.07,3.14,0,.46,0,.9.07,1.29s.08.75.11,1.08l.15,1.5A2,2,0,0,1,298.51,112.38Z" style="fill: rgb(255, 255, 255); transform-origin: 307.219px 89.4637px 0px;" id="el03h5kreb67we" class="animable"></path><path d="M327.3,27.65s.52.05,1.55.18l1.9.23,1.23.16,1.4.24,3.32.6,4,.92c1.43.35,2.95.83,4.58,1.28s3.33,1.1,5.13,1.76A91.18,91.18,0,0,1,374.6,46.63a92.72,92.72,0,0,1,23.88,27.9,89,89,0,0,1,8.2,19.83A92.44,92.44,0,0,1,379.73,188a99.15,99.15,0,0,1-11.37,8.79,93,93,0,0,1-41.82,14.72,95.07,95.07,0,0,1-15.38.16,88.2,88.2,0,0,1-15.4-2.4h.17l-.57.26-28.61,13.06a.26.26,0,0,1-.34-.13.19.19,0,0,1,0-.1q-.09-6.66-.18-13.21l-.06-6.52c0-1.08,0-2.16,0-3.24V196.1s0,0,0-.08a.28.28,0,0,1,.2-.11.3.3,0,0,1,.16,0l-.05,0,.06,0-.23.45a93,93,0,0,1-39.8-60.88,92.36,92.36,0,0,1,34.71-89.3,94.45,94.45,0,0,1,13.11-8.46,99.47,99.47,0,0,1,12.72-5.54,93.12,93.12,0,0,1,21.53-4.73,99.63,99.63,0,0,1,13.86-.25l3.57.3,1.22.12-1.22-.07-3.58-.26a102.24,102.24,0,0,0-13.83.34,93.67,93.67,0,0,0-21.47,4.8A99,99,0,0,0,274.54,38a95,95,0,0,0-13.05,8.47A92.3,92.3,0,0,0,238,73.35a91.62,91.62,0,0,0-3.76,84.71A92.79,92.79,0,0,0,266.66,196a.26.26,0,0,1,.07.36.25.25,0,0,1-.3.1l-.05,0h0a.12.12,0,0,1-.08-.16.14.14,0,0,1,.16-.07h0c.36.15.19.06.23.12v3.1c0,1.07,0,2.15,0,3.24,0,2.16.05,4.34.07,6.52.06,4.36.12,8.77.18,13.2l-.37-.23,28.61-13.06.58-.27a.25.25,0,0,1,.17,0,87.17,87.17,0,0,0,15.31,2.38,94,94,0,0,0,15.29-.16,92.63,92.63,0,0,0,41.59-14.62,97.48,97.48,0,0,0,11.31-8.74,92.53,92.53,0,0,0,29.31-82,93.36,93.36,0,0,0-2.41-11.13,94.51,94.51,0,0,0-3.56-10.34,96.67,96.67,0,0,0-4.57-9.42,92.52,92.52,0,0,0-23.74-27.85,94.07,94.07,0,0,0-12.58-8.33,97,97,0,0,0-11.54-5.32q-2.69-1-5.1-1.78c-1.63-.46-3.14-.94-4.56-1.3l-4-.94-3.32-.62L332,28.31l-1.23-.17-1.9-.26C327.82,27.74,327.3,27.65,327.3,27.65Z" style="fill: rgb(38, 50, 56); transform-origin: 317.629px 124.84px 0px;" id="eli4yv4yivrf" class="animable"></path><path d="M263.74,65.4a3.39,3.39,0,0,1-.58.64c-.38.42-1,1-1.72,1.79a78.7,78.7,0,0,0-5.86,7,75.18,75.18,0,0,0-14.26,56.66,78.84,78.84,0,0,0,1.86,8.91c.26,1,.53,1.83.68,2.38a4.93,4.93,0,0,1,.2.84,6,6,0,0,1-.3-.8c-.18-.54-.48-1.33-.77-2.37a69.76,69.76,0,0,1-2-8.9,73.87,73.87,0,0,1,14.34-56.94,67.89,67.89,0,0,1,6-6.88c.74-.78,1.38-1.33,1.79-1.72A8.27,8.27,0,0,1,263.74,65.4Z" style="fill: rgb(255, 255, 255); transform-origin: 251.881px 104.51px 0px;" id="el15ldgxs3h8oj" class="animable"></path><path d="M389.49,101.06a3.61,3.61,0,0,1,.18.7l.43,2,.3,1.47c.09.54.16,1.14.26,1.77.16,1.28.41,2.72.5,4.33.06.81.13,1.66.2,2.54s.05,1.79.07,2.75c.09,1.9,0,3.93-.1,6.07a81.55,81.55,0,0,1-6.25,27c-.87,1.95-1.66,3.82-2.58,5.49-.44.84-.83,1.68-1.27,2.44l-1.29,2.19c-.79,1.41-1.65,2.59-2.36,3.67-.36.53-.68,1-1,1.47l-.91,1.2c-.53.68-1,1.22-1.28,1.64s-.46.56-.48.54a5.27,5.27,0,0,1,.4-.61l1.19-1.69.88-1.22c.31-.45.62-1,1-1.5.68-1.08,1.52-2.27,2.28-3.69l1.25-2.19c.43-.77.82-1.6,1.25-2.44.89-1.67,1.66-3.54,2.52-5.49a91.68,91.68,0,0,0,4.22-13.16,91.85,91.85,0,0,0,2-13.67c.09-2.13.22-4.15.15-6,0-.94,0-1.86-.05-2.74s-.11-1.71-.16-2.52c-.06-1.61-.29-3.05-.42-4.32-.08-.63-.14-1.23-.21-1.77s-.18-1-.26-1.48c-.13-.85-.24-1.53-.33-2A3.48,3.48,0,0,1,389.49,101.06Z" style="fill: rgb(255, 255, 255); transform-origin: 382.689px 134.696px 0px;" id="el5i3y9fcxa34" class="animable"></path></g><g id="freepik--Character--inject-3" style="transform-origin: 409.93px 309.324px 0px;" class="animable"><path d="M440.76,173.21a69.88,69.88,0,0,0,4.78-11,24.4,24.4,0,0,0,.87-11.89c-.12-.59-1.32-4.65-1.93-4.68-.44,0,.12,3.67-.15,4a20.55,20.55,0,0,0-4.14,11.54,54.62,54.62,0,0,0,.57,12.05" style="fill: rgb(38, 50, 56); transform-origin: 443.429px 159.435px 0px;" id="elkz3ovcc4d1n" class="animable"></path><path d="M443.49,158.14c1.86-9.89-2.34-19.22-12.28-20.81l-.93-.09a18,18,0,0,0-19.5,14.67c-1.57,8.59-3.18,18.09-3.59,22.74-.85,9.62,8.61,12.08,8.61,12.08s-.83,14.94-.83,14.94l23-9.77Z" style="fill: rgb(255, 191, 157); transform-origin: 425.528px 169.41px 0px;" id="el2r4o4vwg8qd" class="animable"></path><path d="M415.79,186.8a23.37,23.37,0,0,0,12.88-2.44s-3.55,7.65-13.05,5.82Z" style="fill: rgb(255, 154, 108); transform-origin: 422.145px 187.411px 0px;" id="el3am15x1s19v" class="animable"></path><path d="M412.73,160.52a1.37,1.37,0,0,0,1.19,1.52,1.3,1.3,0,0,0,1.53-1.09,1.37,1.37,0,0,0-1.18-1.52A1.32,1.32,0,0,0,412.73,160.52Z" style="fill: rgb(38, 50, 56); transform-origin: 414.09px 160.736px 0px;" id="elyg33c28y6a" class="animable"></path><path d="M412.43,156.11c.16.19,1.27-.47,2.75-.32s2.48,1,2.66.83,0-.41-.49-.8a3.79,3.79,0,0,0-2.11-.89,3.71,3.71,0,0,0-2.21.48C412.54,155.71,412.36,156,412.43,156.11Z" style="fill: rgb(38, 50, 56); transform-origin: 415.162px 155.778px 0px;" id="elazhalxzaa67" class="animable"></path><path d="M425.21,162.52A1.37,1.37,0,0,0,426.4,164a1.32,1.32,0,0,0,1.54-1.09,1.4,1.4,0,0,0-1.19-1.52A1.32,1.32,0,0,0,425.21,162.52Z" style="fill: rgb(38, 50, 56); transform-origin: 426.576px 162.696px 0px;" id="elo7pvxwlymnm" class="animable"></path><path d="M426.84,158.16c.15.19,1.27-.47,2.75-.32s2.48,1,2.66.83-.05-.41-.49-.8a3.79,3.79,0,0,0-2.11-.89,3.57,3.57,0,0,0-2.21.48C427,157.76,426.77,158.07,426.84,158.16Z" style="fill: rgb(38, 50, 56); transform-origin: 429.57px 157.826px 0px;" id="elhd6tgc30bxb" class="animable"></path><path d="M420.41,169a10.35,10.35,0,0,0-2.36-.67c-.37-.08-.72-.19-.76-.45a2,2,0,0,1,.36-1.09l1.41-2.76c2-3.94,3.41-7.19,3.25-7.26s-1.87,3-3.83,7c-.47,1-.93,1.89-1.36,2.78a2.19,2.19,0,0,0-.34,1.46,1,1,0,0,0,.56.61,2.64,2.64,0,0,0,.63.16A9.13,9.13,0,0,0,420.41,169Z" style="fill: rgb(38, 50, 56); transform-origin: 419.543px 162.889px 0px;" id="el6w25l0gkywr" class="animable"></path><path d="M427.52,152.17c.11.42,1.6.37,3.31.76s3.07,1,3.34.66c.12-.17-.09-.57-.62-1a5.54,5.54,0,0,0-2.4-1.13,5.68,5.68,0,0,0-2.66.05C427.83,151.69,427.48,152,427.52,152.17Z" style="fill: rgb(38, 50, 56); transform-origin: 430.86px 152.508px 0px;" id="elpupbnn6s24" class="animable"></path><path d="M413.54,151.26c.22.36,1.27.12,2.5.22s2.24.45,2.51.13c.12-.16,0-.52-.43-.88a3.66,3.66,0,0,0-4-.28C413.61,150.75,413.44,151.08,413.54,151.26Z" style="fill: rgb(38, 50, 56); transform-origin: 416.053px 150.863px 0px;" id="elgtuuogfvrw6" class="animable"></path><path d="M442,165.18c.18-.06,6.8-1.29,5.94,5.26s-7.27,4.32-7.26,4.13S442,165.18,442,165.18Z" style="fill: rgb(255, 191, 157); transform-origin: 444.349px 170.069px 0px;" id="elkm69puk0kho" class="animable"></path><path d="M443,172.36s.11.09.29.21a1.17,1.17,0,0,0,.85.13,2.88,2.88,0,0,0,1.64-2.36,3.74,3.74,0,0,0-.1-1.68,1.35,1.35,0,0,0-.74-1,.6.6,0,0,0-.72.23c-.11.17-.09.3-.12.31s-.13-.13,0-.39a.72.72,0,0,1,.31-.38.87.87,0,0,1,.66-.08,1.61,1.61,0,0,1,1.05,1.17,4,4,0,0,1,.16,1.88,3,3,0,0,1-2,2.61,1.22,1.22,0,0,1-1-.31C443,172.52,443,172.37,443,172.36Z" style="fill: rgb(255, 154, 108); transform-origin: 444.663px 170.17px 0px;" id="elib5ghsdgsfn" class="animable"></path><path d="M416.55,141.68c-1-.74,2.68-3.72,5.45-4.53,4.19-1.23,10.35-1.47,13.83.07,4.19,1.85,7.5,4.54,9.13,8.82a26,26,0,0,1,1,13.55,7.75,7.75,0,0,1-1.49,3.86c-1.11,1.32-3,2-3.2,4a2.81,2.81,0,0,1-1,1.9c-1.38,1.1-2.68-.3-3.18-1.6-1.07-2.76-.8-5.84-.51-8.8a19.25,19.25,0,0,1,1.29-6.16c.48-1,1.14-2,1.55-3.07a4,4,0,0,0,0-3.33,4,4,0,0,0-.45-.61,6.9,6.9,0,0,0-6.59-2.25c-3.87.78-10.43,1.84-11.9.35a10.18,10.18,0,0,1-2.51-3.38Z" style="fill: rgb(38, 50, 56); transform-origin: 431.407px 152.946px 0px;" id="elmi8h9v6fxha" class="animable"></path><path d="M424.54,171.54a.57.57,0,0,1,.44,0,.52.52,0,0,1,.22.33,3.29,3.29,0,0,1-.67,3.1l0,0a2.19,2.19,0,0,1-3.63-.84l-.4-1.14Z" style="fill: rgb(255, 154, 108); transform-origin: 422.919px 173.557px 0px;" id="el5d42j517rdc" class="animable"></path><path d="M421.18,174.71c-.06,0,.36.71,1.53,1a1.81,1.81,0,0,0,1-.07,2.1,2.1,0,0,0,1-.56,3.93,3.93,0,0,0,.88-2.32,3.61,3.61,0,0,0,0-.66.92.92,0,0,0-.32-.69.81.81,0,0,0-.75,0l-.53.21-1.81.73a7,7,0,0,0-1.62.77,8.2,8.2,0,0,0,1.73-.49l1.84-.64c.33-.1.77-.34.89-.2s.17.59.13,1a3.72,3.72,0,0,1-.74,2.08,1.9,1.9,0,0,1-.79.5,1.7,1.7,0,0,1-.82.1A4,4,0,0,1,421.18,174.71Z" style="fill: rgb(38, 50, 56); transform-origin: 423.083px 173.534px 0px;" id="elccdxtf7nzim" class="animable"></path><path d="M409.51,440.3l.77,19.54s-19.6,7.34-19.81,11l37.93-.13.05-30.48Z" style="fill: rgb(38, 50, 56); transform-origin: 409.46px 455.535px 0px;" id="el8w0fgbwfyus" class="animable"></path><path d="M422,458.15a1.57,1.57,0,0,1,1.08,1.77,1.49,1.49,0,0,1-1.74,1.08,1.62,1.62,0,0,1-1.13-1.87,1.54,1.54,0,0,1,1.93-.93" style="fill: rgb(224, 224, 224); transform-origin: 421.641px 459.576px 0px;" id="el72s54u7s32y" class="animable"></path><path d="M428.4,470.67l-.12-3.07L392,468.87s-1.69.74-1.49,1.93Z" style="fill: rgb(69, 90, 100); transform-origin: 409.447px 469.2px 0px;" id="elnopgud2s85r" class="animable"></path><path d="M409.66,459.65c0,.18.93.26,1.85.85s1.4,1.37,1.57,1.3-.11-1.14-1.23-1.84S409.62,459.48,409.66,459.65Z" style="fill: rgb(255, 255, 255); transform-origin: 411.392px 460.641px 0px;" id="elwodijqn8nnh" class="animable"></path><path d="M405.69,461.3c0,.18.76.5,1.39,1.28s.82,1.61,1,1.6.3-1.06-.5-2S405.69,461.13,405.69,461.3Z" style="fill: rgb(255, 255, 255); transform-origin: 406.951px 462.707px 0px;" id="el6bb4zi748ol" class="animable"></path><path d="M403.45,466.07c.16,0,.42-.88-.06-1.9s-1.35-1.41-1.42-1.26.46.7.84,1.54S403.26,466.06,403.45,466.07Z" style="fill: rgb(255, 255, 255); transform-origin: 402.815px 464.475px 0px;" id="eld11vf48lu27" class="animable"></path><path d="M410,455.17c.08.17.93-.09,2,0s1.87.4,2,.24-.7-.82-1.93-.88S409.89,455,410,455.17Z" style="fill: rgb(255, 255, 255); transform-origin: 412.002px 454.99px 0px;" id="elt48e47gjik" class="animable"></path><path d="M452.8,439.61l1.93,22.17-3.53,18a2.28,2.28,0,0,0,2,2.7h0a2.29,2.29,0,0,0,2-.71c3.18-3.47,14.82-16.29,14.59-17.9-.27-1.87-.49-23.53-.49-23.53Z" style="fill: rgb(38, 50, 56); transform-origin: 460.476px 461.056px 0px;" id="elckxcowlsd35" class="animable"></path><path d="M453.16,482.46l16.45-20.11.06.94a3.42,3.42,0,0,1-.67,2.27c-1.3,1.75-5,6.5-13.81,16.18a2.26,2.26,0,0,1-2,.72Z" style="fill: rgb(69, 90, 100); transform-origin: 461.419px 472.417px 0px;" id="elxvu5nm270qp" class="animable"></path><g id="elffrva609zaf"><g style="opacity: 0.6; transform-origin: 465.375px 456.512px 0px;" class="animable"><path d="M464.59,455.48a1.38,1.38,0,0,0-.26,1.82,1.32,1.32,0,0,0,1.8.27,1.45,1.45,0,0,0,.27-1.93,1.38,1.38,0,0,0-1.91-.08" style="fill: rgb(255, 255, 255); transform-origin: 465.375px 456.512px 0px;" id="elletha5tfrq" class="animable"></path></g></g><path d="M457.61,472.43a7,7,0,0,0-2.06-1.6,7.17,7.17,0,0,0-2.59-.33c0-.05.25-.24.77-.35a3.66,3.66,0,0,1,3.59,1.49C457.61,472.08,457.66,472.41,457.61,472.43Z" style="fill: rgb(255, 255, 255); transform-origin: 455.294px 471.265px 0px;" id="elh1msz9qjeeh" class="animable"></path><path d="M456.22,475.51a16.9,16.9,0,0,0-2-.83,17.4,17.4,0,0,0-2.19-.14,2.54,2.54,0,0,1,2.3-.34C455.63,474.5,456.33,475.44,456.22,475.51Z" style="fill: rgb(255, 255, 255); transform-origin: 454.131px 474.787px 0px;" id="el4alesb29tl" class="animable"></path><path d="M460.31,468.43a23.34,23.34,0,0,0-3-1.49,24.18,24.18,0,0,0-3.35-.56,6.22,6.22,0,0,1,6.39,2.05Z" style="fill: rgb(255, 255, 255); transform-origin: 457.155px 467.301px 0px;" id="elui8v4qgu2w" class="animable"></path><path d="M460.29,461.64c-.05.14-1.31-.3-2.91-.25s-2.85.51-2.9.37a5.68,5.68,0,0,1,5.81-.12Z" style="fill: rgb(255, 255, 255); transform-origin: 457.385px 461.343px 0px;" id="eljtve8qxyqj" class="animable"></path><path d="M459.88,455.12a11.07,11.07,0,0,0-3-.35,11.5,11.5,0,0,0-2.9.93s.19-.34.68-.66a5,5,0,0,1,4.45-.44C459.64,454.82,459.91,455.07,459.88,455.12Z" style="fill: rgb(255, 255, 255); transform-origin: 456.931px 454.985px 0px;" id="elsy9aguhptn" class="animable"></path><path d="M456.82,453.53a1.82,1.82,0,0,1-.08-.84,5.84,5.84,0,0,1,.52-2.24,2.62,2.62,0,0,1,1-1.31.92.92,0,0,1,1,.14,1.49,1.49,0,0,1,.41,1,3.22,3.22,0,0,1-2.62,3.16,3.76,3.76,0,0,1-3.8-1.72,1.36,1.36,0,0,1-.13-1.07.92.92,0,0,1,.91-.54,3.23,3.23,0,0,1,1.52.67,6.44,6.44,0,0,1,1.62,1.63c.31.45.42.73.39.74a10.44,10.44,0,0,0-2.21-2.08,2.84,2.84,0,0,0-1.33-.55.47.47,0,0,0-.5.29.94.94,0,0,0,.13.7,3.35,3.35,0,0,0,3.3,1.45,2.8,2.8,0,0,0,2.27-2.65,1.07,1.07,0,0,0-.26-.7.48.48,0,0,0-.57-.08,2.42,2.42,0,0,0-.9,1.09A8.61,8.61,0,0,0,456.82,453.53Z" style="fill: rgb(255, 255, 255); transform-origin: 456.367px 451.291px 0px;" id="el14ze9kgd22x" class="animable"></path><path d="M394.2,284.28s-3.26,13.21-2.28,26c.38,4.94,15,144,15,144h22.91l-6.44-130.72,1.84.4s12.29,54.78,13.29,63.64c.9,8,11.26,65.89,11.26,65.89l20.58.24-6.57-76.61-7.65-73.5-2.88-21.4Z" style="fill: rgb(38, 50, 56); transform-origin: 431.048px 368.25px 0px;" id="eldi6qf682yjl" class="animable"></path><path d="M427,310.44a4.6,4.6,0,0,1-.94.53,11,11,0,0,1-2.79,1,6,6,0,0,1-2.07,0,4.38,4.38,0,0,1-2.17-1,5.29,5.29,0,0,1-1.32-2.3c-.26-.88-.41-1.79-.6-2.71-.72-3.71-1.2-7.09-1.49-9.55-.14-1.23-.23-2.22-.28-2.91a4.94,4.94,0,0,1,0-1.08,5.4,5.4,0,0,1,.21,1.06c.12.78.26,1.74.44,2.89.37,2.44.9,5.8,1.62,9.5.36,1.83.61,3.69,1.75,4.78a4.68,4.68,0,0,0,3.89,1,12.79,12.79,0,0,0,2.76-.81A4.53,4.53,0,0,1,427,310.44Z" style="fill: rgb(38, 50, 56); transform-origin: 421.155px 302.24px 0px;" id="elskrlk7b50cc" class="animable"></path><path d="M420.19,293s.15-.12.46-.14a2,2,0,0,1,1.26.4,2.27,2.27,0,0,1,.95,1.74,2.23,2.23,0,0,1-3.8,1.43,2.25,2.25,0,0,1-.43-1.93,2.08,2.08,0,0,1,.69-1.14c.25-.19.43-.22.44-.2a2.53,2.53,0,0,0-.8,1.4,2,2,0,0,0,.43,1.58,1.82,1.82,0,0,0,3-1.14,2,2,0,0,0-.71-1.47A2.51,2.51,0,0,0,420.19,293Z" style="fill: rgb(38, 50, 56); transform-origin: 420.714px 294.97px 0px;" id="el5fe7a3q2rz3" class="animable"></path><path d="M455.86,302.28a2.74,2.74,0,0,1-.77.12,13.82,13.82,0,0,1-2.11,0,20.74,20.74,0,0,1-6.78-1.57,20.52,20.52,0,0,1-5.86-3.76,13.34,13.34,0,0,1-1.45-1.52c-.32-.39-.48-.61-.45-.64s.78.78,2.13,1.91A22.62,22.62,0,0,0,453,302.09C454.75,302.26,455.85,302.2,455.86,302.28Z" style="fill: rgb(38, 50, 56); transform-origin: 447.148px 298.675px 0px;" id="elbi2gr7ln118" class="animable"></path><path d="M401.15,293.43a10.39,10.39,0,0,1-1,2.3,25.84,25.84,0,0,1-3.48,4.84,23.22,23.22,0,0,1-4.41,3.76,8.15,8.15,0,0,1-2.07,1.11,21.9,21.9,0,0,1,1.91-1.39,29.29,29.29,0,0,0,4.27-3.82,32.15,32.15,0,0,0,3.53-4.69A22.69,22.69,0,0,1,401.15,293.43Z" style="fill: rgb(38, 50, 56); transform-origin: 395.67px 299.435px 0px;" id="elfxf7x3s8yur" class="animable"></path><path d="M353.79,194.15,352.42,191s-1.17-5-1.59-6.22a23.73,23.73,0,0,0-3.18-5.32c-.49-.29-4.82-3.77-5.55-5s-1.42-2.74-1.42-2.74a2,2,0,0,0-1.49,1.86c-.14,1.58,1.69,6,1.69,6l-6.95,7.23s1.37,4.61,3.18,6.13,3.93,2.44,4.35,3,1.44,2,1.44,2Z" style="fill: rgb(255, 191, 157); transform-origin: 343.86px 184.83px 0px;" id="elm8b3cw4u49h" class="animable"></path><polygon points="344.83 188.63 333.6 159.82 331.17 160.73 342.24 189.35 344.83 188.63" style="fill: rgb(38, 50, 56); transform-origin: 338px 174.585px 0px;" id="el0puw10lu554" class="animable"></polygon><path d="M335.9,176.17a1.75,1.75,0,0,0-2.26,1.59c-.17,2.08,1.25,2.38,1.25,2.38a2.68,2.68,0,0,0-.3,3.45,3.33,3.33,0,0,0-.66,3.2l.65,1.25,1.54-.8s4.1,2.37,5.76,1.24l.59-.78a1.4,1.4,0,0,0,1.42-.68c.41-.84.47-.82-.63-2.34s-4.41-3.35-4.41-3.35,2.09.53,2.66-.34.3-1.88-1.56-3A21.64,21.64,0,0,0,335.9,176.17Z" style="fill: rgb(255, 191, 157); transform-origin: 338.894px 182.439px 0px;" id="elrz2etqx0ziq" class="animable"></path><path d="M335.9,176.17s.26.11.74.3,1.19.49,2.05.93a14.85,14.85,0,0,1,1.39.79,4.14,4.14,0,0,1,1.34,1.24,1.28,1.28,0,0,1,.21.91,1.13,1.13,0,0,1-.5.82,2.2,2.2,0,0,1-1.07.18,4.85,4.85,0,0,1-1.18-.16l-.95-.22.84.5a20.67,20.67,0,0,1,3.78,2.68,5.61,5.61,0,0,1,.79.94,4.64,4.64,0,0,1,.63,1,.71.71,0,0,1-.09.52l-.14.3a1.88,1.88,0,0,1-.16.23,1.24,1.24,0,0,1-1.08.35h-.1l-.06.08-.59.78,0,0-.22.11a2.71,2.71,0,0,1-1.39.12,7.32,7.32,0,0,1-1.4-.33,15.4,15.4,0,0,1-2.58-1.14l-.08,0-.08,0-1.54.8.22.07c-.22-.43-.44-.84-.66-1.25v0a3.16,3.16,0,0,1,.62-3.05l.07-.08-.05-.09a3.11,3.11,0,0,1-.45-1.79,2.45,2.45,0,0,1,.7-1.5l.15-.14-.2-.06a1.56,1.56,0,0,1-.93-.79,2.54,2.54,0,0,1-.26-1.12,2.84,2.84,0,0,1,.15-1,1.42,1.42,0,0,1,.5-.66,2,2,0,0,1,1.11-.31c.28,0,.42,0,.42,0a1.08,1.08,0,0,0-.41-.08,1.88,1.88,0,0,0-1.2.27,1.55,1.55,0,0,0-.57.7,3.23,3.23,0,0,0-.18,1.06,2.69,2.69,0,0,0,.25,1.21,1.75,1.75,0,0,0,1.07.93l-.05-.2a2.65,2.65,0,0,0-.81,1.64,3.29,3.29,0,0,0,.46,2l0-.16a3.61,3.61,0,0,0-.78,1.52,3.24,3.24,0,0,0,.08,1.82h0l.64,1.26.08.14.14-.07c.5-.27,1-.53,1.54-.8H336a15.36,15.36,0,0,0,2.64,1.18,7.88,7.88,0,0,0,1.47.35,3,3,0,0,0,1.57-.15l.27-.14h0l0,0,.59-.77-.16.06a1.61,1.61,0,0,0,1.38-.46,1.06,1.06,0,0,0,.21-.31l.15-.31a1.08,1.08,0,0,0,.11-.74,4.81,4.81,0,0,0-.69-1.16,6.6,6.6,0,0,0-.83-1,20.84,20.84,0,0,0-3.86-2.7l-.11.27a6,6,0,0,0,1.25.16,2.42,2.42,0,0,0,1.2-.24,1.49,1.49,0,0,0,.37-2.09,4.57,4.57,0,0,0-1.44-1.29,14.64,14.64,0,0,0-1.42-.77,20.47,20.47,0,0,0-2.1-.85,5.5,5.5,0,0,0-.57-.18C336,176.17,335.9,176.16,335.9,176.17Z" style="fill: rgb(255, 154, 108); transform-origin: 338.871px 182.491px 0px;" id="elo8gqqetkc8k" class="animable"></path><path d="M335,184a15.61,15.61,0,0,1,7.51,3.75,3.55,3.55,0,0,0-.83-1,10.73,10.73,0,0,0-2.52-1.74,11.41,11.41,0,0,0-2.9-1A3.49,3.49,0,0,0,335,184Z" style="fill: rgb(255, 154, 108); transform-origin: 338.755px 185.849px 0px;" id="elud5x3m684cn" class="animable"></path><path d="M334.87,180.29c0,.1,1,.13,2.25.57s2.1,1,2.16.88a4.53,4.53,0,0,0-2-1.2A3.86,3.86,0,0,0,334.87,180.29Z" style="fill: rgb(255, 154, 108); transform-origin: 337.075px 180.978px 0px;" id="el1swiv7334m5" class="animable"></path><path d="M464.65,210.91s11.12,47.88,10,62.5-3.4,36.08-3.4,36.08l-15.64-.86,1.54-39.87-6.46-29.11Z" style="fill: rgb(224, 224, 224); transform-origin: 462.71px 260.2px 0px;" id="elegs9nvernah" class="animable"></path><path d="M440.69,193.31l10.8,7.55-12,48V291.5s-12.75,2.19-20.75,1.64c-4.59-.31-11.64-1.94-16.8-3.26h0c-1.88-.49-3.51-.93-4.68-1.26l-3.35-.89-3.28-4.12.67-24.85-.38-4.47V208.84c2.13-4,1.24-10.49,5.55-11.77l18.93-6.69a10.5,10.5,0,0,0,9.49,5.43c7,0,13.44-6.85,13.44-6.85Z" style="fill: rgb(38, 38, 38); transform-origin: 421.06px 241.094px 0px;" id="elt5flgs45fw" class="animable"></path><path d="M415.16,189.37l-6.64,3.28-16.78,5.66-27.88,17.58L355.76,192l-17.38,6.32,12.74,34.28a13.4,13.4,0,0,0,14,8.42,13.58,13.58,0,0,0,2.89-.72l22.57-8.58.39,27.37-.87,100.09,18.15,1.28.31-100.22C408.81,235.42,415.16,189.37,415.16,189.37Z" style="fill: rgb(224, 224, 224); transform-origin: 376.77px 274.915px 0px;" id="elg1cwt0ii81t" class="animable"></path><path d="M390.42,210.91a2.15,2.15,0,0,0,0,.47c0,.34,0,.8-.05,1.36,0,1.22-.05,2.91-.09,5-.05,4.22-.07,10,0,16.48s.2,12.27.33,16.49c.08,2.08.14,3.78.19,5,0,.57.05,1,.07,1.36a2.48,2.48,0,0,0,.05.47,4.24,4.24,0,0,0,0-.47c0-.35,0-.8,0-1.36,0-1.22-.05-2.92-.08-5-.08-4.22-.18-10-.24-16.48s-.08-12.26-.08-16.48c0-2.08,0-3.78,0-5,0-.56,0-1,0-1.36A2.84,2.84,0,0,0,390.42,210.91Z" style="fill: rgb(38, 50, 56); transform-origin: 390.581px 234.225px 0px;" id="elyws5tdjrszh" class="animable"></path><path d="M450.51,264.78,453,238.09l11.55-25.9c.62-2.16-3.26-8.38-5.26-9.43L444,195.07l-4.43-5.24-4.33,16.79c-1.31,5.06-2.16,13.18-3.23,26.55l-1.49,29.61a62.83,62.83,0,0,0,.72,13.14l8.11,82.94s26.77,3.5,27.4-.13S450.51,264.78,450.51,264.78Z" style="fill: rgb(224, 224, 224); transform-origin: 448.604px 275.104px 0px;" id="el7f19r8o0tik" class="animable"></path><path d="M451.51,253.79c.14,0,1.45-9.43,2.92-21.09s2.55-21.14,2.41-21.16-1.45,9.42-2.92,21.09S451.37,253.77,451.51,253.79Z" style="fill: rgb(38, 50, 56); transform-origin: 454.175px 232.665px 0px;" id="elyhl6rmbdgg" class="animable"></path><path d="M444.28,195a1.38,1.38,0,0,1,.08.4c0,.26.05.65.07,1.15a39.43,39.43,0,0,1-.25,4.29c-.19,1.81-.5,4-.88,6.39-.18,1.21-.38,2.48-.58,3.81a2,2,0,0,1-.45,1,1.92,1.92,0,0,1-1,.57,6.07,6.07,0,0,1-2.21-.07l.25-.43a7.6,7.6,0,0,1,1,3.77,25.42,25.42,0,0,1-1.69,9.27,56.79,56.79,0,0,1-3.08,7l-1.39,2.6L433,236.69l-.74,1.19c-.18.27-.27.41-.29.4s.05-.16.2-.45l.65-1.24c.31-.56.66-1.21,1.06-2s.84-1.66,1.32-2.63a61.55,61.55,0,0,0,2.95-7,25.64,25.64,0,0,0,1.63-9.08,7.37,7.37,0,0,0-.91-3.46l-.35-.53.6.1a5.51,5.51,0,0,0,2,.08,1.31,1.31,0,0,0,1.1-1.19c.22-1.32.42-2.6.62-3.8.41-2.41.75-4.56,1-6.36s.36-3.25.41-4.25S444.24,195,444.28,195Z" style="fill: rgb(38, 50, 56); transform-origin: 438.198px 216.64px 0px;" id="elmks6qapj829" class="animable"></path><path d="M408.51,192.89a15,15,0,0,1-.5,1.47c-.31.95-.71,2.35-1.12,4.11s-.86,3.9-1.33,6.3c-.24,1.2-.5,2.46-.76,3.78a1.29,1.29,0,0,0,.61,1.5,5.67,5.67,0,0,0,1.9.63l1.08.22-1.08.31a2.73,2.73,0,0,0-1.22.94,6.92,6.92,0,0,0-.82,1.52,15.29,15.29,0,0,0-.84,4.64,38.32,38.32,0,0,0,.06,4.44c.13,1.42.23,2.77.44,4s.34,2.42.55,3.48c.36,2.13.74,3.84,1,5,.1.54.19,1,.26,1.37a1.46,1.46,0,0,1,.06.48s-.07-.15-.16-.46l-.37-1.34c-.31-1.17-.74-2.87-1.15-5-.24-1-.43-2.22-.62-3.49s-.34-2.61-.49-4a37.07,37.07,0,0,1-.1-4.51,15.76,15.76,0,0,1,.87-4.8,4.32,4.32,0,0,1,2.45-2.8v.53a6.21,6.21,0,0,1-2.09-.73,1.85,1.85,0,0,1-.76-.89,2,2,0,0,1-.06-1.15c.28-1.31.55-2.57.8-3.76.51-2.4,1-4.53,1.45-6.29a35.27,35.27,0,0,1,1.28-4.1,11,11,0,0,1,.48-1.06A1.46,1.46,0,0,1,408.51,192.89Z" style="fill: rgb(38, 50, 56); transform-origin: 406.196px 214.985px 0px;" id="el5t3klppc6bj" class="animable"></path><path d="M471.2,309.49a6.42,6.42,0,0,1-1.15,0l-3.2-.11-11.31-.53h-.23v-.24c.13-3.63.28-7.75.44-12.11.32-7.63.62-14.54.83-19.63.13-2.45.24-4.46.32-5.95,0-.65.08-1.18.11-1.61a1.93,1.93,0,0,1,.08-.56,2,2,0,0,1,0,.56c0,.43,0,1,0,1.62,0,1.49-.09,3.5-.15,6-.17,5.09-.41,12-.68,19.63-.17,4.36-.34,8.48-.49,12.11l-.23-.25,11.3.72,3.19.24A8.32,8.32,0,0,1,471.2,309.49Z" style="fill: rgb(38, 50, 56); transform-origin: 463.255px 289.133px 0px;" id="elq9auer6gskh" class="animable"></path><rect x="433.08" y="319.22" width="55.61" height="39.69" rx="2.61" style="fill: rgb(69, 90, 100); transform-origin: 460.885px 339.065px 0px;" id="elclbfttkhkl6" class="animable"></rect><path d="M454.64,319.25a1.06,1.06,0,0,1,1.35,1.07c.05,1.11-.9,8.59-.9,8.59s-2.34,8.33-1.7,9.26a1.51,1.51,0,0,0,2.37.11c.32-.44,3-7.39,3-7.39l.67-3.78s-1.36,12-.6,12.92a1.31,1.31,0,0,0,2.11.09c.52-.47,1.07-5.77,1.07-5.77l1.23-7.07L463,338.76s.14,1.28,1.14,1.32a1.72,1.72,0,0,0,1.67-1.42l1.4-11.89s-.47,7.72.05,8.12c.69.54,1.33.36,1.56-.23.46-1.2,1.14-8.15,1.14-8.15l.63-13.21.48-3.65L458.42,309l0,.89s-4.88,3.69-6,5.15a16.44,16.44,0,0,0-1.91,4.18Z" style="fill: rgb(255, 191, 157); transform-origin: 460.79px 324.805px 0px;" id="eltb70oocrn5" class="animable"></path><rect x="430.08" y="328.14" width="6" height="17.69" style="fill: rgb(69, 90, 100); transform-origin: 433.08px 336.985px 0px;" id="elknu42o4jlp9" class="animable"></rect><polygon points="431.71 335.77 426.85 334.3 426.82 340.17 431.53 339.09 431.71 335.77" style="fill: rgb(69, 90, 100); transform-origin: 429.265px 337.235px 0px;" id="el7ce1oaryuht" class="animable"></polygon><path d="M432.91,345.83a19.92,19.92,0,0,1,3.17-.18l-.18.18c0-2.19-.09-5.41-.09-9,0-3.41,0-6.5.08-8.7l.19.19a21.41,21.41,0,0,1-3.46-.19,23,23,0,0,1,3.46-.19h.18v.19c.05,2.2.08,5.29.08,8.7,0,3.58,0,6.8-.09,9V346h-.17A19.92,19.92,0,0,1,432.91,345.83Z" style="fill: rgb(38, 50, 56); transform-origin: 434.48px 336.971px 0px;" id="elknzcqin6lqr" class="animable"></path></g><defs>     <filter id="active" height="200%">         <feMorphology in="SourceAlpha" result="DILATED" operator="dilate" radius="2"></feMorphology>                <feFlood flood-color="#32DFEC" flood-opacity="1" result="PINK"></feFlood>        <feComposite in="PINK" in2="DILATED" operator="in" result="OUTLINE"></feComposite>        <feMerge>            <feMergeNode in="OUTLINE"></feMergeNode>            <feMergeNode in="SourceGraphic"></feMergeNode>        </feMerge>    </filter>    <filter id="hover" height="200%">        <feMorphology in="SourceAlpha" result="DILATED" operator="dilate" radius="2"></feMorphology>                <feFlood flood-color="#ff0000" flood-opacity="0.5" result="PINK"></feFlood>        <feComposite in="PINK" in2="DILATED" operator="in" result="OUTLINE"></feComposite>        <feMerge>            <feMergeNode in="OUTLINE"></feMergeNode>            <feMergeNode in="SourceGraphic"></feMergeNode>        </feMerge>            <feColorMatrix type="matrix" values="0   0   0   0   0                0   1   0   0   0                0   0   0   0   0                0   0   0   1   0 "></feColorMatrix>    </filter></defs></svg>